<svg xmlns="http://www.w3.org/2000/svg" version="1.1" xmlns:xlink="http://www.w3.org/1999/xlink" xmlns:svgjs="http://svgjs.dev/svgjs" width="2000" height="666" viewBox="0 0 2000 666"><g transform="matrix(1,0,0,1,-1.2121212121212466,1.1060013487660285)"><svg viewBox="0 0 396 132" data-background-color="#ffffff" preserveAspectRatio="xMidYMid meet" height="666" width="2000" xmlns="http://www.w3.org/2000/svg" xmlns:xlink="http://www.w3.org/1999/xlink"><g id="tight-bounds" transform="matrix(1,0,0,1,0.2400000000000091,-0.21920747453020795)"><svg viewBox="0 0 395.52 132.4384149490604" height="132.4384149490604" width="395.52"><g><svg viewBox="0 0 661.1169837647822 221.37258653345327" height="132.4384149490604" width="395.52"><g><rect width="6.406852545539864" height="112.36335831622247" x="242.41826591678188" y="54.5046141086154" fill="#111111" opacity="1" stroke-width="0" stroke="transparent" fill-opacity="1" class="rect-qz-0" data-fill-palette-color="primary" rx="1%" id="qz-0" data-palette-color="#111111"></rect></g><g transform="matrix(1,0,0,1,265.5969837647821,54.784124950198034)"><svg viewBox="0 0 395.52 111.8043366330572" height="111.8043366330572" width="395.52"><g id="textblocktransform"><svg viewBox="0 0 395.52 111.8043366330572" height="111.8043366330572" width="395.52" id="textblock"><g><svg viewBox="0 0 395.52 71.04434716981132" height="71.04434716981132" width="395.52"><g transform="matrix(1,0,0,1,0,0)"><svg width="395.52" viewBox="0.5 -35.1 198.73 35.7" height="71.04434716981132" data-palette-color="#111111"><path d="M29.3-32.2L18.45 0 10.35 0 0.5-32.2 7.4-32.2 8.2-27.95 14.3-6.3 14.75-6.3 21.75-27.6 22.6-32.2 29.3-32.2ZM32.5 0L32.85-9.6 32.6-22.8 39.15-23.35 38.85-10.25 39.15 0 32.5 0ZM36-34.65Q37.55-34.65 38.42-33.75 39.3-32.85 39.3-31.25L39.3-31.25Q39.3-29.55 38.35-28.55 37.4-27.55 35.75-27.55L35.75-27.55Q34.1-27.55 33.22-28.45 32.35-29.35 32.35-31L32.35-31Q32.35-32.65 33.32-33.65 34.3-34.65 36-34.65L36-34.65ZM58-23.55Q62.4-23.55 64.72-20.58 67.05-17.6 67.05-12.3L67.05-12.3Q67.05-6.15 64-2.83 60.95 0.5 55.55 0.5L55.55 0.5Q53 0.5 49.95-0.65L49.95-0.65 46.45 0.6 45.65-0.05 46-9.55 45.7-34.6 52.3-35.1 52.1-19.95 52.4-19.95Q53.8-21.3 55.1-22.13 56.4-22.95 58-23.55L58-23.55ZM55.55-3.85Q58.05-3.85 59.45-5.65 60.84-7.45 60.84-11.15L60.84-11.15Q60.84-14.6 59.72-16.4 58.59-18.2 56.35-18.2L56.35-18.2Q54.3-18.2 52.05-16.1L52.05-16.1 51.95-10.4 52.05-4.75Q53.9-3.85 55.55-3.85L55.55-3.85ZM90.34-11.6L89.59-10.8 76.09-10.7Q76.54-4.45 82.44-4.45L82.44-4.45Q85.54-4.45 89.34-6.2L89.34-6.2 89.89-5.85 88.89-0.9Q85.09 0.5 81.74 0.5L81.74 0.5Q76.24 0.5 73.12-2.7 69.99-5.9 69.99-11.55L69.99-11.55Q69.99-17.15 73.04-20.43 76.09-23.7 81.29-23.7L81.29-23.7Q85.74-23.7 88.17-21.28 90.59-18.85 90.59-14.5L90.59-14.5Q90.59-13.35 90.34-11.6L90.34-11.6ZM84.69-14.55L84.79-15.25Q84.79-17.25 83.89-18.28 82.99-19.3 81.24-19.3L81.24-19.3Q79.29-19.3 77.99-18.03 76.69-16.75 76.24-14.35L76.24-14.35 84.69-14.55ZM119.29-32.2L108.44 0 100.34 0 90.49-32.2 97.39-32.2 98.19-27.95 104.29-6.3 104.74-6.3 111.74-27.6 112.59-32.2 119.29-32.2ZM138.79-11.6L138.04-10.8 124.54-10.7Q124.99-4.45 130.89-4.45L130.89-4.45Q133.99-4.45 137.79-6.2L137.79-6.2 138.34-5.85 137.34-0.9Q133.54 0.5 130.19 0.5L130.19 0.5Q124.69 0.5 121.56-2.7 118.44-5.9 118.44-11.55L118.44-11.55Q118.44-17.15 121.49-20.43 124.54-23.7 129.74-23.7L129.74-23.7Q134.19-23.7 136.61-21.28 139.04-18.85 139.04-14.5L139.04-14.5Q139.04-13.35 138.79-11.6L138.79-11.6ZM133.14-14.55L133.24-15.25Q133.24-17.25 132.34-18.28 131.44-19.3 129.69-19.3L129.69-19.3Q127.74-19.3 126.44-18.03 125.14-16.75 124.69-14.35L124.69-14.35 133.14-14.55ZM156.49-23.3Q156.94-23.3 157.74-23.2L157.74-23.2 157.74-17.05 157.03-16.8Q156.19-17.15 155.19-17.15L155.19-17.15Q152.28-17.15 149.94-13.4L149.94-13.4 149.94-10.25 150.28 0 143.64 0 144.03-9.6 143.74-22.8 150.03-23.35 149.99-18.8 150.39-18.8Q152.84-23.3 156.49-23.3L156.49-23.3ZM168.83-23.65Q172.23-23.65 175.23-22.5L175.23-22.5 174.33-17.6 173.53-17.35Q172.08-18.3 170.63-18.8 169.18-19.3 168.08-19.3L168.08-19.3Q166.88-19.3 166.18-18.68 165.48-18.05 165.48-17.15L165.48-17.15Q165.48-16.1 166.41-15.45 167.33-14.8 169.33-14L169.33-14Q171.33-13.2 172.63-12.45 173.93-11.7 174.86-10.38 175.78-9.05 175.78-7.1L175.78-7.1Q175.78-5.1 174.76-3.38 173.73-1.65 171.63-0.58 169.53 0.5 166.48 0.5L166.48 0.5Q162.88 0.5 159.03-1L159.03-1 159.78-6.2 160.43-6.6Q161.98-5.3 163.88-4.53 165.78-3.75 167.23-3.75L167.23-3.75Q168.58-3.75 169.33-4.42 170.08-5.1 170.08-6.05L170.08-6.05Q170.08-7.1 169.16-7.75 168.23-8.4 166.23-9.2L166.23-9.2Q164.18-10.1 162.88-10.83 161.58-11.55 160.66-12.9 159.73-14.25 159.73-16.25L159.73-16.25Q159.73-19.5 162.18-21.58 164.63-23.65 168.83-23.65L168.83-23.65ZM198.98-11.6L198.23-10.8 184.73-10.7Q185.18-4.45 191.08-4.45L191.08-4.45Q194.18-4.45 197.98-6.2L197.98-6.2 198.53-5.85 197.53-0.9Q193.73 0.5 190.38 0.5L190.38 0.5Q184.88 0.5 181.75-2.7 178.63-5.9 178.63-11.55L178.63-11.55Q178.63-17.15 181.68-20.43 184.73-23.7 189.93-23.7L189.93-23.7Q194.38-23.7 196.81-21.28 199.23-18.85 199.23-14.5L199.23-14.5Q199.23-13.35 198.98-11.6L198.98-11.6ZM193.33-14.55L193.43-15.25Q193.43-17.25 192.53-18.28 191.63-19.3 189.88-19.3L189.88-19.3Q187.93-19.3 186.63-18.03 185.33-16.75 184.88-14.35L184.88-14.35 193.33-14.55Z" opacity="1" transform="matrix(1,0,0,1,0,0)" fill="#111111" class="wordmark-text-0" data-fill-palette-color="primary" id="text-0"></path></svg></g></svg></g><g transform="matrix(1,0,0,1,0,87.8162124722717)"><svg viewBox="0 0 232.209792 23.988124160785517" height="23.988124160785517" width="232.209792"><g transform="matrix(1,0,0,1,0,0)"><svg width="232.209792" viewBox="2 -39.65 488.79 50.5" height="23.988124160785517" data-palette-color="url(#778e031b-f5ea-4c91-b4d9-4e2979c9d992)"></svg></g></svg></g></svg></g></svg></g><g><svg viewBox="0 0 225.6464006143215 221.37258653345327" height="221.37258653345327" width="225.6464006143215"><g><svg xmlns="http://www.w3.org/2000/svg" xmlns:xlink="http://www.w3.org/1999/xlink" version="1.1" x="0" y="0" viewBox="7.637000000000002 8.599 85.285 83.66967516922709" enable-background="new 0 0 100 100" xml:space="preserve" height="221.37258653345327" width="225.6464006143215" class="icon-icon-0" data-fill-palette-color="accent" id="icon-0"></svg></g></svg></g></svg></g><defs></defs><mask id="229d4f91-5b56-411c-ac46-604852342440"><g id="SvgjsG2132"><svg viewBox="0 0 395.52 132.4384149490604" height="132.4384149490604" width="395.52"><g><svg viewBox="0 0 661.1169837647822 221.37258653345327" height="132.4384149490604" width="395.52"><g><rect width="6.406852545539864" height="112.36335831622247" x="242.41826591678188" y="54.5046141086154" fill="black" opacity="1" stroke-width="0" stroke="transparent" fill-opacity="1" class="rect-qz-0" rx="1%" id="SvgjsRect2131" data-palette-color="#111111"></rect></g><g transform="matrix(1,0,0,1,265.5969837647821,54.784124950198034)"><svg viewBox="0 0 395.52 111.8043366330572" height="111.8043366330572" width="395.52"><g id="SvgjsG2130"><svg viewBox="0 0 395.52 111.8043366330572" height="111.8043366330572" width="395.52" id="SvgjsSvg2129"><g><svg viewBox="0 0 395.52 71.04434716981132" height="71.04434716981132" width="395.52"><g transform="matrix(1,0,0,1,0,0)"><svg width="395.52" viewBox="0.5 -35.1 198.73 35.7" height="71.04434716981132" data-palette-color="#111111"><path d="M29.3-32.2L18.45 0 10.35 0 0.5-32.2 7.4-32.2 8.2-27.95 14.3-6.3 14.75-6.3 21.75-27.6 22.6-32.2 29.3-32.2ZM32.5 0L32.85-9.6 32.6-22.8 39.15-23.35 38.85-10.25 39.15 0 32.5 0ZM36-34.65Q37.55-34.65 38.42-33.75 39.3-32.85 39.3-31.25L39.3-31.25Q39.3-29.55 38.35-28.55 37.4-27.55 35.75-27.55L35.75-27.55Q34.1-27.55 33.22-28.45 32.35-29.35 32.35-31L32.35-31Q32.35-32.65 33.32-33.65 34.3-34.65 36-34.65L36-34.65ZM58-23.55Q62.4-23.55 64.72-20.58 67.05-17.6 67.05-12.3L67.05-12.3Q67.05-6.15 64-2.83 60.95 0.5 55.55 0.5L55.55 0.5Q53 0.5 49.95-0.65L49.95-0.65 46.45 0.6 45.65-0.05 46-9.55 45.7-34.6 52.3-35.1 52.1-19.95 52.4-19.95Q53.8-21.3 55.1-22.13 56.4-22.95 58-23.55L58-23.55ZM55.55-3.85Q58.05-3.85 59.45-5.65 60.84-7.45 60.84-11.15L60.84-11.15Q60.84-14.6 59.72-16.4 58.59-18.2 56.35-18.2L56.35-18.2Q54.3-18.2 52.05-16.1L52.05-16.1 51.95-10.4 52.05-4.75Q53.9-3.85 55.55-3.85L55.55-3.85ZM90.34-11.6L89.59-10.8 76.09-10.7Q76.54-4.45 82.44-4.45L82.44-4.45Q85.54-4.45 89.34-6.2L89.34-6.2 89.89-5.85 88.89-0.9Q85.09 0.5 81.74 0.5L81.74 0.5Q76.24 0.5 73.12-2.7 69.99-5.9 69.99-11.55L69.99-11.55Q69.99-17.15 73.04-20.43 76.09-23.7 81.29-23.7L81.29-23.7Q85.74-23.7 88.17-21.28 90.59-18.85 90.59-14.5L90.59-14.5Q90.59-13.35 90.34-11.6L90.34-11.6ZM84.69-14.55L84.79-15.25Q84.79-17.25 83.89-18.28 82.99-19.3 81.24-19.3L81.24-19.3Q79.29-19.3 77.99-18.03 76.69-16.75 76.24-14.35L76.24-14.35 84.69-14.55ZM119.29-32.2L108.44 0 100.34 0 90.49-32.2 97.39-32.2 98.19-27.95 104.29-6.3 104.74-6.3 111.74-27.6 112.59-32.2 119.29-32.2ZM138.79-11.6L138.04-10.8 124.54-10.7Q124.99-4.45 130.89-4.45L130.89-4.45Q133.99-4.45 137.79-6.2L137.79-6.2 138.34-5.85 137.34-0.9Q133.54 0.5 130.19 0.5L130.19 0.5Q124.69 0.5 121.56-2.7 118.44-5.9 118.44-11.55L118.44-11.55Q118.44-17.15 121.49-20.43 124.54-23.7 129.74-23.7L129.74-23.7Q134.19-23.7 136.61-21.28 139.04-18.85 139.04-14.5L139.04-14.5Q139.04-13.35 138.79-11.6L138.79-11.6ZM133.14-14.55L133.24-15.25Q133.24-17.25 132.34-18.28 131.44-19.3 129.69-19.3L129.69-19.3Q127.74-19.3 126.44-18.03 125.14-16.75 124.69-14.35L124.69-14.35 133.14-14.55ZM156.49-23.3Q156.94-23.3 157.74-23.2L157.74-23.2 157.74-17.05 157.03-16.8Q156.19-17.15 155.19-17.15L155.19-17.15Q152.28-17.15 149.94-13.4L149.94-13.4 149.94-10.25 150.28 0 143.64 0 144.03-9.6 143.74-22.8 150.03-23.35 149.99-18.8 150.39-18.8Q152.84-23.3 156.49-23.3L156.49-23.3ZM168.83-23.65Q172.23-23.65 175.23-22.5L175.23-22.5 174.33-17.6 173.53-17.35Q172.08-18.3 170.63-18.8 169.18-19.3 168.08-19.3L168.08-19.3Q166.88-19.3 166.18-18.68 165.48-18.05 165.48-17.15L165.48-17.15Q165.48-16.1 166.41-15.45 167.33-14.8 169.33-14L169.33-14Q171.33-13.2 172.63-12.45 173.93-11.7 174.86-10.38 175.78-9.05 175.78-7.1L175.78-7.1Q175.78-5.1 174.76-3.38 173.73-1.65 171.63-0.58 169.53 0.5 166.48 0.5L166.48 0.5Q162.88 0.5 159.03-1L159.03-1 159.78-6.2 160.43-6.6Q161.98-5.3 163.88-4.53 165.78-3.75 167.23-3.75L167.23-3.75Q168.58-3.75 169.33-4.42 170.08-5.1 170.08-6.05L170.08-6.05Q170.08-7.1 169.16-7.75 168.23-8.4 166.23-9.2L166.23-9.2Q164.18-10.1 162.88-10.83 161.58-11.55 160.66-12.9 159.73-14.25 159.73-16.25L159.73-16.25Q159.73-19.5 162.18-21.58 164.63-23.65 168.83-23.65L168.83-23.65ZM198.98-11.6L198.23-10.8 184.73-10.7Q185.18-4.45 191.08-4.45L191.08-4.45Q194.18-4.45 197.98-6.2L197.98-6.2 198.53-5.85 197.53-0.9Q193.73 0.5 190.38 0.5L190.38 0.5Q184.88 0.5 181.75-2.7 178.63-5.9 178.63-11.55L178.63-11.55Q178.63-17.15 181.68-20.43 184.73-23.7 189.93-23.7L189.93-23.7Q194.38-23.7 196.81-21.28 199.23-18.85 199.23-14.5L199.23-14.5Q199.23-13.35 198.98-11.6L198.98-11.6ZM193.33-14.55L193.43-15.25Q193.43-17.25 192.53-18.28 191.63-19.3 189.88-19.3L189.88-19.3Q187.93-19.3 186.63-18.03 185.33-16.75 184.88-14.35L184.88-14.35 193.33-14.55Z" opacity="1" transform="matrix(1,0,0,1,0,0)" fill="black" class="wordmark-text-0" id="SvgjsPath2128"></path></svg></g></svg></g><g transform="matrix(1,0,0,1,0,87.8162124722717)"><svg viewBox="0 0 232.209792 23.988124160785517" height="23.988124160785517" width="232.209792"><g transform="matrix(1,0,0,1,0,0)"><svg width="232.209792" viewBox="2 -39.65 488.79 50.5" height="23.988124160785517" data-palette-color="url(#778e031b-f5ea-4c91-b4d9-4e2979c9d992)"><path d="M29.05-34.55L31.25 0 25.2 0 24.6-14.6Q24.3-22.6 24.3-26L24.3-26 24.35-28.6 19.6-3.8 13.6-3.8 8.65-28.65Q8.7-27.15 8.7-24.05L8.7-24.05Q8.7-18.8 8.5-14.4L8.5-14.4 7.95 0 2 0 4.2-34.55 12.2-34.55 16.7-10.2 20.9-34.55 29.05-34.55ZM45.45-27.15Q50.45-27.15 53.22-23.65 56-20.15 56-13.25L56-13.25Q56-6.65 53.2-2.95 50.4 0.75 45.45 0.75L45.45 0.75Q40.5 0.75 37.7-2.88 34.9-6.5 34.9-13.25L34.9-13.25Q34.9-19.95 37.7-23.55 40.5-27.15 45.45-27.15L45.45-27.15ZM45.45-22.5Q43.3-22.5 42.3-20.38 41.3-18.25 41.3-13.25L41.3-13.25Q41.3-8.2 42.3-6.08 43.3-3.95 45.45-3.95L45.45-3.95Q47.6-3.95 48.6-6.08 49.6-8.2 49.6-13.25L49.6-13.25Q49.6-18.3 48.6-20.4 47.6-22.5 45.45-22.5L45.45-22.5ZM72.2-27.1Q73.35-27.1 74.25-26.75L74.25-26.75 73.25-20.85Q72.25-21.1 71.4-21.1L71.4-21.1Q69.5-21.1 68.4-19.45 67.3-17.8 66.7-14.55L66.7-14.55 66.7 0 60.55 0 60.55-26.45 65.9-26.45 66.35-21.85Q68.2-27.1 72.2-27.1L72.2-27.1ZM90.04-37.7L96.19-37.05 96.19 0 90.74 0 90.44-3.05Q88.09 0.75 84.39 0.75L84.39 0.75Q80.29 0.75 78.12-2.93 75.94-6.6 75.94-13.2L75.94-13.2Q75.94-17.4 77.07-20.58 78.19-23.75 80.19-25.45 82.19-27.15 84.79-27.15L84.79-27.15Q87.99-27.15 90.04-24.5L90.04-24.5 90.04-37.7ZM86.14-3.9Q87.29-3.9 88.22-4.7 89.14-5.5 90.04-7L90.04-7 90.04-19.85Q88.44-22.55 86.39-22.55L86.39-22.55Q82.34-22.55 82.34-13.25L82.34-13.25Q82.34-8.2 83.34-6.05 84.34-3.9 86.14-3.9L86.14-3.9ZM120.74-13.85Q120.74-13.4 120.59-11.3L120.59-11.3 106.94-11.3Q107.14-7.2 108.37-5.58 109.59-3.95 111.84-3.95L111.84-3.95Q113.39-3.95 114.64-4.48 115.89-5 117.34-6.15L117.34-6.15 119.89-2.65Q116.39 0.75 111.49 0.75L111.49 0.75Q106.29 0.75 103.52-2.85 100.74-6.45 100.74-13L100.74-13Q100.74-19.55 103.39-23.35 106.04-27.15 110.89-27.15L110.89-27.15Q115.54-27.15 118.14-23.78 120.74-20.4 120.74-13.85L120.74-13.85ZM114.74-15.3L114.74-15.65Q114.74-19.4 113.84-21.13 112.94-22.85 110.94-22.85L110.94-22.85Q109.09-22.85 108.12-21.18 107.14-19.5 106.94-15.3L106.94-15.3 114.74-15.3ZM136.69-27.1Q137.84-27.1 138.74-26.75L138.74-26.75 137.74-20.85Q136.74-21.1 135.89-21.1L135.89-21.1Q133.99-21.1 132.89-19.45 131.79-17.8 131.19-14.55L131.19-14.55 131.19 0 125.04 0 125.04-26.45 130.39-26.45 130.84-21.85Q132.69-27.1 136.69-27.1L136.69-27.1ZM153.94-27.15Q156.79-27.15 158.44-25.1 160.09-23.05 160.09-19.6L160.09-19.6 160.09 0 153.94 0 153.94-18.9Q153.94-20.8 153.41-21.63 152.89-22.45 151.89-22.45L151.89-22.45Q149.79-22.45 147.74-18.5L147.74-18.5 147.74 0 141.59 0 141.59-26.45 146.94-26.45 147.39-23Q148.74-25.1 150.26-26.13 151.79-27.15 153.94-27.15L153.94-27.15ZM187.13-35.25Q189.78-35.25 191.81-34.38 193.83-33.5 195.73-31.7L195.73-31.7 192.68-28.05Q191.38-29.25 190.16-29.83 188.93-30.4 187.48-30.4L187.48-30.4Q184.48-30.4 182.78-27.4 181.08-24.4 181.08-17.35L181.08-17.35Q181.08-10.4 182.78-7.38 184.48-4.35 187.58-4.35L187.58-4.35Q189.13-4.35 190.28-4.98 191.43-5.6 192.98-6.9L192.98-6.9 196.03-3.4Q194.43-1.6 192.18-0.43 189.93 0.75 187.13 0.75L187.13 0.75Q181.28 0.75 177.83-3.8 174.38-8.35 174.38-17.35L174.38-17.35Q174.38-23.3 176.03-27.3 177.68-31.3 180.56-33.27 183.43-35.25 187.13-35.25L187.13-35.25ZM211.63-27.15Q214.48-27.15 216.13-25.1 217.78-23.05 217.78-19.6L217.78-19.6 217.78 0 211.63 0 211.63-18.9Q211.63-20.8 211.1-21.63 210.58-22.45 209.58-22.45L209.58-22.45Q207.48-22.45 205.43-18.5L205.43-18.5 205.43 0 199.28 0 199.28-37 205.43-37.65 205.43-23.3Q206.68-25.25 208.15-26.2 209.63-27.15 211.63-27.15L211.63-27.15ZM240.23-6.4Q240.23-5.1 240.58-4.48 240.93-3.85 241.73-3.45L241.73-3.45 240.48 0.65Q238.43 0.4 237.2-0.45 235.98-1.3 235.38-3.05L235.38-3.05Q233.08 0.75 228.93 0.75L228.93 0.75Q225.63 0.75 223.68-1.48 221.73-3.7 221.73-7.4L221.73-7.4Q221.73-11.7 224.4-13.95 227.08-16.2 232.18-16.2L232.18-16.2 234.23-16.2 234.23-18.05Q234.23-20.55 233.35-21.58 232.48-22.6 230.53-22.6L230.53-22.6Q228.18-22.6 224.68-21.3L224.68-21.3 223.28-25.3Q225.28-26.2 227.43-26.68 229.58-27.15 231.53-27.15L231.53-27.15Q240.23-27.15 240.23-18.35L240.23-18.35 240.23-6.4ZM230.58-3.7Q232.98-3.7 234.23-7L234.23-7 234.23-12.55 232.78-12.55Q230.23-12.55 229.05-11.4 227.88-10.25 227.88-7.85L227.88-7.85Q227.88-5.8 228.58-4.75 229.28-3.7 230.58-3.7L230.58-3.7ZM257.17-5L259.32-1.2Q256.87 0.75 253.57 0.75L253.57 0.75Q250.12 0.75 248.32-1.23 246.52-3.2 246.52-6.6L246.52-6.6 246.52-22 243.42-22 243.42-26.45 246.52-26.45 246.52-32.3 252.67-33.05 252.67-26.45 257.67-26.45 257.07-22 252.67-22 252.67-6.6Q252.67-4.2 254.72-4.2L254.72-4.2Q255.37-4.2 255.87-4.38 256.37-4.55 257.17-5L257.17-5ZM274.07-13.2L261.17-13.2 261.17-18.1 274.07-18.1 274.07-13.2ZM301.17 0L294.72 0 293.02-8.1 284.12-8.1 282.47 0 276.12 0 284.82-34.55 292.52-34.55 301.17 0ZM288.57-29.7L285.12-12.9 292.07-12.9 288.57-29.7ZM316.12-27.15Q320.02-27.15 322.02-23.58 324.02-20 324.02-13.3L324.02-13.3Q324.02-6.8 321.74-3.03 319.47 0.75 315.42 0.75L315.42 0.75Q312.22 0.75 310.07-2.1L310.07-2.1 310.07 10.15 303.92 10.85 303.92-26.45 309.37-26.45 309.62-23.25Q310.92-25.25 312.52-26.2 314.12-27.15 316.12-27.15L316.12-27.15ZM313.77-3.95Q315.67-3.95 316.67-6.13 317.67-8.3 317.67-13.25L317.67-13.25Q317.67-18.45 316.82-20.5 315.97-22.55 314.17-22.55L314.17-22.55Q311.87-22.55 310.07-19.25L310.07-19.25 310.07-6.45Q311.67-3.95 313.77-3.95L313.77-3.95ZM340.81-27.15Q344.71-27.15 346.71-23.58 348.71-20 348.71-13.3L348.71-13.3Q348.71-6.8 346.44-3.03 344.16 0.75 340.11 0.75L340.11 0.75Q336.91 0.75 334.76-2.1L334.76-2.1 334.76 10.15 328.61 10.85 328.61-26.45 334.06-26.45 334.31-23.25Q335.61-25.25 337.21-26.2 338.81-27.15 340.81-27.15L340.81-27.15ZM338.46-3.95Q340.36-3.95 341.36-6.13 342.36-8.3 342.36-13.25L342.36-13.25Q342.36-18.45 341.51-20.5 340.66-22.55 338.86-22.55L338.86-22.55Q336.56-22.55 334.76-19.25L334.76-19.25 334.76-6.45Q336.36-3.95 338.46-3.95L338.46-3.95ZM358.91 0.75Q356.21 0.75 354.64-0.93 353.06-2.6 353.06-5.4L353.06-5.4 353.06-37.05 359.21-37.7 359.21-5.65Q359.21-5 359.51-4.6 359.81-4.2 360.41-4.2L360.41-4.2Q360.76-4.2 361.09-4.3 361.41-4.4 361.51-4.4L361.51-4.4 362.71-0.2Q361.01 0.75 358.91 0.75L358.91 0.75ZM365.76-26.45L371.91-26.45 371.91 0 365.76 0 365.76-26.45ZM368.81-39.65Q370.46-39.65 371.48-38.6 372.51-37.55 372.51-35.9L372.51-35.9Q372.51-34.3 371.48-33.25 370.46-32.2 368.81-32.2L368.81-32.2Q367.16-32.2 366.13-33.25 365.11-34.3 365.11-35.9L365.11-35.9Q365.11-37.55 366.13-38.6 367.16-39.65 368.81-39.65L368.81-39.65ZM387.11-27.15Q389.26-27.15 391.01-26.43 392.76-25.7 394.36-24.15L394.36-24.15 391.71-20.65Q390.61-21.55 389.63-21.98 388.66-22.4 387.51-22.4L387.51-22.4Q385.26-22.4 384.11-20.28 382.96-18.15 382.96-13.1L382.96-13.1Q382.96-8.2 384.13-6.2 385.31-4.2 387.51-4.2L387.51-4.2Q388.61-4.2 389.51-4.6 390.41-5 391.61-5.85L391.61-5.85 394.36-2.3Q391.16 0.75 387.21 0.75L387.21 0.75Q382.11 0.75 379.28-2.73 376.46-6.2 376.46-13L376.46-13Q376.46-17.4 377.76-20.6 379.06-23.8 381.48-25.48 383.91-27.15 387.11-27.15L387.11-27.15ZM414.3-6.4Q414.3-5.1 414.65-4.48 415-3.85 415.8-3.45L415.8-3.45 414.55 0.65Q412.5 0.4 411.28-0.45 410.05-1.3 409.45-3.05L409.45-3.05Q407.15 0.75 403 0.75L403 0.75Q399.7 0.75 397.75-1.48 395.8-3.7 395.8-7.4L395.8-7.4Q395.8-11.7 398.48-13.95 401.15-16.2 406.25-16.2L406.25-16.2 408.3-16.2 408.3-18.05Q408.3-20.55 407.43-21.58 406.55-22.6 404.6-22.6L404.6-22.6Q402.25-22.6 398.75-21.3L398.75-21.3 397.35-25.3Q399.35-26.2 401.5-26.68 403.65-27.15 405.6-27.15L405.6-27.15Q414.3-27.15 414.3-18.35L414.3-18.35 414.3-6.4ZM404.65-3.7Q407.05-3.7 408.3-7L408.3-7 408.3-12.55 406.85-12.55Q404.3-12.55 403.13-11.4 401.95-10.25 401.95-7.85L401.95-7.85Q401.95-5.8 402.65-4.75 403.35-3.7 404.65-3.7L404.65-3.7ZM431.25-5L433.4-1.2Q430.95 0.75 427.65 0.75L427.65 0.75Q424.2 0.75 422.4-1.23 420.6-3.2 420.6-6.6L420.6-6.6 420.6-22 417.5-22 417.5-26.45 420.6-26.45 420.6-32.3 426.75-33.05 426.75-26.45 431.75-26.45 431.15-22 426.75-22 426.75-6.6Q426.75-4.2 428.8-4.2L428.8-4.2Q429.45-4.2 429.95-4.38 430.45-4.55 431.25-5L431.25-5ZM435.95-26.45L442.1-26.45 442.1 0 435.95 0 435.95-26.45ZM439-39.65Q440.65-39.65 441.67-38.6 442.7-37.55 442.7-35.9L442.7-35.9Q442.7-34.3 441.67-33.25 440.65-32.2 439-32.2L439-32.2Q437.35-32.2 436.32-33.25 435.3-34.3 435.3-35.9L435.3-35.9Q435.3-37.55 436.32-38.6 437.35-39.65 439-39.65L439-39.65ZM457.2-27.15Q462.2-27.15 464.97-23.65 467.75-20.15 467.75-13.25L467.75-13.25Q467.75-6.65 464.95-2.95 462.15 0.75 457.2 0.75L457.2 0.75Q452.25 0.75 449.45-2.88 446.65-6.5 446.65-13.25L446.65-13.25Q446.65-19.95 449.45-23.55 452.25-27.15 457.2-27.15L457.2-27.15ZM457.2-22.5Q455.05-22.5 454.05-20.38 453.05-18.25 453.05-13.25L453.05-13.25Q453.05-8.2 454.05-6.08 455.05-3.95 457.2-3.95L457.2-3.95Q459.35-3.95 460.35-6.08 461.35-8.2 461.35-13.25L461.35-13.25Q461.35-18.3 460.35-20.4 459.35-22.5 457.2-22.5L457.2-22.5ZM484.64-27.15Q487.49-27.15 489.14-25.1 490.79-23.05 490.79-19.6L490.79-19.6 490.79 0 484.64 0 484.64-18.9Q484.64-20.8 484.12-21.63 483.59-22.45 482.59-22.45L482.59-22.45Q480.49-22.45 478.44-18.5L478.44-18.5 478.44 0 472.29 0 472.29-26.45 477.64-26.45 478.09-23Q479.44-25.1 480.97-26.13 482.49-27.15 484.64-27.15L484.64-27.15Z" opacity="1" transform="matrix(1,0,0,1,0,0)" fill="white" class="slogan-text-1" id="SvgjsPath2127"></path></svg></g></svg></g></svg></g></svg></g><g><svg viewBox="0 0 225.6464006143215 221.37258653345327" height="221.37258653345327" width="225.6464006143215"><g><svg xmlns="http://www.w3.org/2000/svg" xmlns:xlink="http://www.w3.org/1999/xlink" version="1.1" x="0" y="0" viewBox="7.637000000000002 8.599 85.285 83.66967516922709" enable-background="new 0 0 100 100" xml:space="preserve" height="221.37258653345327" width="225.6464006143215" class="icon-icon-0" data-fill-palette-color="accent" id="SvgjsSvg2126"><g fill="black"><path d="M92.922 19.558c0-6.04-4.919-10.959-10.962-10.959H18.6c-6.045 0-10.963 4.919-10.963 10.959v41.267c0 6.042 4.918 10.952 10.963 10.952h10.504v16.196c0 1.74 1.038 3.297 2.641 3.966 1.612 0.669 3.45 0.301 4.684-0.933l19.231-19.229H81.96c6.043 0 10.962-4.91 10.962-10.952V19.558zM87.011 60.824c0 2.777-2.265 5.041-5.051 5.041H54.437h-1.222l-0.869 0.87-17.33 17.328V68.819v-2.954h-2.957H18.6c-2.782 0-5.05-2.264-5.05-5.041V19.558c0-2.776 2.268-5.047 5.05-5.047h63.36c2.786 0 5.051 2.271 5.051 5.047V60.824z" fill="black"></path></g></svg></g></svg></g></svg></g><defs><mask></mask></defs></svg><rect width="395.52" height="132.4384149490604" fill="black" stroke="none" visibility="hidden"></rect></g></mask><linearGradient x1="0.054" x2="0.941" y1="0.5" y2="0.5" id="778e031b-f5ea-4c91-b4d9-4e2979c9d992"><stop stop-color="#0f3054" offset="0"></stop><stop stop-color="#3b8dcb" offset="0.498"></stop><stop stop-color="#0f3054" offset="1"></stop></linearGradient><rect width="395.52" height="132.4384149490604" fill="url(#778e031b-f5ea-4c91-b4d9-4e2979c9d992)" mask="url(#229d4f91-5b56-411c-ac46-604852342440)" data-fill-palette-color="secondary"></rect><mask id="9aa534ba-3f48-43e8-a280-6185a0eea1aa"><g id="SvgjsG2145"><svg viewBox="0 0 395.52 132.4384149490604" height="132.4384149490604" width="395.52"><g><svg viewBox="0 0 661.1169837647822 221.37258653345327" height="132.4384149490604" width="395.52"><g><rect width="6.406852545539864" height="112.36335831622247" x="242.41826591678188" y="54.5046141086154" fill="black" opacity="1" stroke-width="0" stroke="transparent" fill-opacity="1" class="rect-qz-0" rx="1%" id="SvgjsRect2144" data-palette-color="#111111"></rect></g><g transform="matrix(1,0,0,1,265.5969837647821,54.784124950198034)"><svg viewBox="0 0 395.52 111.8043366330572" height="111.8043366330572" width="395.52"><g id="SvgjsG2143"><svg viewBox="0 0 395.52 111.8043366330572" height="111.8043366330572" width="395.52" id="SvgjsSvg2142"><g><svg viewBox="0 0 395.52 71.04434716981132" height="71.04434716981132" width="395.52"><g transform="matrix(1,0,0,1,0,0)"><svg width="395.52" viewBox="0.5 -35.1 198.73 35.7" height="71.04434716981132" data-palette-color="#111111"><path d="M29.3-32.2L18.45 0 10.35 0 0.5-32.2 7.4-32.2 8.2-27.95 14.3-6.3 14.75-6.3 21.75-27.6 22.6-32.2 29.3-32.2ZM32.5 0L32.85-9.6 32.6-22.8 39.15-23.35 38.85-10.25 39.15 0 32.5 0ZM36-34.65Q37.55-34.65 38.42-33.75 39.3-32.85 39.3-31.25L39.3-31.25Q39.3-29.55 38.35-28.55 37.4-27.55 35.75-27.55L35.75-27.55Q34.1-27.55 33.22-28.45 32.35-29.35 32.35-31L32.35-31Q32.35-32.65 33.32-33.65 34.3-34.65 36-34.65L36-34.65ZM58-23.55Q62.4-23.55 64.72-20.58 67.05-17.6 67.05-12.3L67.05-12.3Q67.05-6.15 64-2.83 60.95 0.5 55.55 0.5L55.55 0.5Q53 0.5 49.95-0.65L49.95-0.65 46.45 0.6 45.65-0.05 46-9.55 45.7-34.6 52.3-35.1 52.1-19.95 52.4-19.95Q53.8-21.3 55.1-22.13 56.4-22.95 58-23.55L58-23.55ZM55.55-3.85Q58.05-3.85 59.45-5.65 60.84-7.45 60.84-11.15L60.84-11.15Q60.84-14.6 59.72-16.4 58.59-18.2 56.35-18.2L56.35-18.2Q54.3-18.2 52.05-16.1L52.05-16.1 51.95-10.4 52.05-4.75Q53.9-3.85 55.55-3.85L55.55-3.85ZM90.34-11.6L89.59-10.8 76.09-10.7Q76.54-4.45 82.44-4.45L82.44-4.45Q85.54-4.45 89.34-6.2L89.34-6.2 89.89-5.85 88.89-0.9Q85.09 0.5 81.74 0.5L81.74 0.5Q76.24 0.5 73.12-2.7 69.99-5.9 69.99-11.55L69.99-11.55Q69.99-17.15 73.04-20.43 76.09-23.7 81.29-23.7L81.29-23.7Q85.74-23.7 88.17-21.28 90.59-18.85 90.59-14.5L90.59-14.5Q90.59-13.35 90.34-11.6L90.34-11.6ZM84.69-14.55L84.79-15.25Q84.79-17.25 83.89-18.28 82.99-19.3 81.24-19.3L81.24-19.3Q79.29-19.3 77.99-18.03 76.69-16.75 76.24-14.35L76.24-14.35 84.69-14.55ZM119.29-32.2L108.44 0 100.34 0 90.49-32.2 97.39-32.2 98.19-27.95 104.29-6.3 104.74-6.3 111.74-27.6 112.59-32.2 119.29-32.2ZM138.79-11.6L138.04-10.8 124.54-10.7Q124.99-4.45 130.89-4.45L130.89-4.45Q133.99-4.45 137.79-6.2L137.79-6.2 138.34-5.85 137.34-0.9Q133.54 0.5 130.19 0.5L130.19 0.5Q124.69 0.5 121.56-2.7 118.44-5.9 118.44-11.55L118.44-11.55Q118.44-17.15 121.49-20.43 124.54-23.7 129.74-23.7L129.74-23.7Q134.19-23.7 136.61-21.28 139.04-18.85 139.04-14.5L139.04-14.5Q139.04-13.35 138.79-11.6L138.79-11.6ZM133.14-14.55L133.24-15.25Q133.24-17.25 132.34-18.28 131.44-19.3 129.69-19.3L129.69-19.3Q127.74-19.3 126.44-18.03 125.14-16.75 124.69-14.35L124.69-14.35 133.14-14.55ZM156.49-23.3Q156.94-23.3 157.74-23.2L157.74-23.2 157.74-17.05 157.03-16.8Q156.19-17.15 155.19-17.15L155.19-17.15Q152.28-17.15 149.94-13.4L149.94-13.4 149.94-10.25 150.28 0 143.64 0 144.03-9.6 143.74-22.8 150.03-23.35 149.99-18.8 150.39-18.8Q152.84-23.3 156.49-23.3L156.49-23.3ZM168.83-23.65Q172.23-23.65 175.23-22.5L175.23-22.5 174.33-17.6 173.53-17.35Q172.08-18.3 170.63-18.8 169.18-19.3 168.08-19.3L168.08-19.3Q166.88-19.3 166.18-18.68 165.48-18.05 165.48-17.15L165.48-17.15Q165.48-16.1 166.41-15.45 167.33-14.8 169.33-14L169.33-14Q171.33-13.2 172.63-12.45 173.93-11.7 174.86-10.38 175.78-9.05 175.78-7.1L175.78-7.1Q175.78-5.1 174.76-3.38 173.73-1.65 171.63-0.58 169.53 0.5 166.48 0.5L166.48 0.5Q162.88 0.5 159.03-1L159.03-1 159.78-6.2 160.43-6.6Q161.98-5.3 163.88-4.53 165.78-3.75 167.23-3.75L167.23-3.75Q168.58-3.75 169.33-4.42 170.08-5.1 170.08-6.05L170.08-6.05Q170.08-7.1 169.16-7.75 168.23-8.4 166.23-9.2L166.23-9.2Q164.18-10.1 162.88-10.83 161.58-11.55 160.66-12.9 159.73-14.25 159.73-16.25L159.73-16.25Q159.73-19.5 162.18-21.58 164.63-23.65 168.83-23.65L168.83-23.65ZM198.98-11.6L198.23-10.8 184.73-10.7Q185.18-4.45 191.08-4.45L191.08-4.45Q194.18-4.45 197.98-6.2L197.98-6.2 198.53-5.85 197.53-0.9Q193.73 0.5 190.38 0.5L190.38 0.5Q184.88 0.5 181.75-2.7 178.63-5.9 178.63-11.55L178.63-11.55Q178.63-17.15 181.68-20.43 184.73-23.7 189.93-23.7L189.93-23.7Q194.38-23.7 196.81-21.28 199.23-18.85 199.23-14.5L199.23-14.5Q199.23-13.35 198.98-11.6L198.98-11.6ZM193.33-14.55L193.43-15.25Q193.43-17.25 192.53-18.28 191.63-19.3 189.88-19.3L189.88-19.3Q187.93-19.3 186.63-18.03 185.33-16.75 184.88-14.35L184.88-14.35 193.33-14.55Z" opacity="1" transform="matrix(1,0,0,1,0,0)" fill="black" class="wordmark-text-0" id="SvgjsPath2141"></path></svg></g></svg></g><g transform="matrix(1,0,0,1,0,87.8162124722717)"><svg viewBox="0 0 232.209792 23.988124160785517" height="23.988124160785517" width="232.209792"><g transform="matrix(1,0,0,1,0,0)"><svg width="232.209792" viewBox="2 -39.65 488.79 50.5" height="23.988124160785517" data-palette-color="url(#778e031b-f5ea-4c91-b4d9-4e2979c9d992)"></svg></g></svg></g></svg></g></svg></g><g><svg viewBox="0 0 225.6464006143215 221.37258653345327" height="221.37258653345327" width="225.6464006143215"><g><svg xmlns="http://www.w3.org/2000/svg" xmlns:xlink="http://www.w3.org/1999/xlink" version="1.1" x="0" y="0" viewBox="7.637000000000002 8.599 85.285 83.66967516922709" enable-background="new 0 0 100 100" xml:space="preserve" height="221.37258653345327" width="225.6464006143215" class="icon-icon-0" data-fill-palette-color="accent" id="SvgjsSvg2140"><g fill="white"><path d="M92.922 19.558c0-6.04-4.919-10.959-10.962-10.959H18.6c-6.045 0-10.963 4.919-10.963 10.959v41.267c0 6.042 4.918 10.952 10.963 10.952h10.504v16.196c0 1.74 1.038 3.297 2.641 3.966 1.612 0.669 3.45 0.301 4.684-0.933l19.231-19.229H81.96c6.043 0 10.962-4.91 10.962-10.952V19.558zM87.011 60.824c0 2.777-2.265 5.041-5.051 5.041H54.437h-1.222l-0.869 0.87-17.33 17.328V68.819v-2.954h-2.957H18.6c-2.782 0-5.05-2.264-5.05-5.041V19.558c0-2.776 2.268-5.047 5.05-5.047h63.36c2.786 0 5.051 2.271 5.051 5.047V60.824z" fill="white"></path></g></svg></g></svg></g></svg></g><defs><mask></mask></defs><mask><g id="SvgjsG2139"><svg viewBox="0 0 395.52 132.4384149490604" height="132.4384149490604" width="395.52"><g><svg viewBox="0 0 661.1169837647822 221.37258653345327" height="132.4384149490604" width="395.52"><g><rect width="6.406852545539864" height="112.36335831622247" x="242.41826591678188" y="54.5046141086154" fill="black" opacity="1" stroke-width="0" stroke="transparent" fill-opacity="1" class="rect-qz-0" rx="1%" id="SvgjsRect2138" data-palette-color="#111111"></rect></g><g transform="matrix(1,0,0,1,265.5969837647821,54.784124950198034)"><svg viewBox="0 0 395.52 111.8043366330572" height="111.8043366330572" width="395.52"><g id="SvgjsG2137"><svg viewBox="0 0 395.52 111.8043366330572" height="111.8043366330572" width="395.52" id="SvgjsSvg2136"><g><svg viewBox="0 0 395.52 71.04434716981132" height="71.04434716981132" width="395.52"><g transform="matrix(1,0,0,1,0,0)"><svg width="395.52" viewBox="0.5 -35.1 198.73 35.7" height="71.04434716981132" data-palette-color="#111111"><path d="M29.3-32.2L18.45 0 10.35 0 0.5-32.2 7.4-32.2 8.2-27.95 14.3-6.3 14.75-6.3 21.75-27.6 22.6-32.2 29.3-32.2ZM32.5 0L32.85-9.6 32.6-22.8 39.15-23.35 38.85-10.25 39.15 0 32.5 0ZM36-34.65Q37.55-34.65 38.42-33.75 39.3-32.85 39.3-31.25L39.3-31.25Q39.3-29.55 38.35-28.55 37.4-27.55 35.75-27.55L35.75-27.55Q34.1-27.55 33.22-28.45 32.35-29.35 32.35-31L32.35-31Q32.35-32.65 33.32-33.65 34.3-34.65 36-34.65L36-34.65ZM58-23.55Q62.4-23.55 64.72-20.58 67.05-17.6 67.05-12.3L67.05-12.3Q67.05-6.15 64-2.83 60.95 0.5 55.55 0.5L55.55 0.5Q53 0.5 49.95-0.65L49.95-0.65 46.45 0.6 45.65-0.05 46-9.55 45.7-34.6 52.3-35.1 52.1-19.95 52.4-19.95Q53.8-21.3 55.1-22.13 56.4-22.95 58-23.55L58-23.55ZM55.55-3.85Q58.05-3.85 59.45-5.65 60.84-7.45 60.84-11.15L60.84-11.15Q60.84-14.6 59.72-16.4 58.59-18.2 56.35-18.2L56.35-18.2Q54.3-18.2 52.05-16.1L52.05-16.1 51.95-10.4 52.05-4.75Q53.9-3.85 55.55-3.85L55.55-3.85ZM90.34-11.6L89.59-10.8 76.09-10.7Q76.54-4.45 82.44-4.45L82.44-4.45Q85.54-4.45 89.34-6.2L89.34-6.2 89.89-5.85 88.89-0.9Q85.09 0.5 81.74 0.5L81.74 0.5Q76.24 0.5 73.12-2.7 69.99-5.9 69.99-11.55L69.99-11.55Q69.99-17.15 73.04-20.43 76.09-23.7 81.29-23.7L81.29-23.7Q85.74-23.7 88.17-21.28 90.59-18.85 90.59-14.5L90.59-14.5Q90.59-13.35 90.34-11.6L90.34-11.6ZM84.69-14.55L84.79-15.25Q84.79-17.25 83.89-18.28 82.99-19.3 81.24-19.3L81.24-19.3Q79.29-19.3 77.99-18.03 76.69-16.75 76.24-14.35L76.24-14.35 84.69-14.55ZM119.29-32.2L108.44 0 100.34 0 90.49-32.2 97.39-32.2 98.19-27.95 104.29-6.3 104.74-6.3 111.74-27.6 112.59-32.2 119.29-32.2ZM138.79-11.6L138.04-10.8 124.54-10.7Q124.99-4.45 130.89-4.45L130.89-4.45Q133.99-4.45 137.79-6.2L137.79-6.2 138.34-5.85 137.34-0.9Q133.54 0.5 130.19 0.5L130.19 0.5Q124.69 0.5 121.56-2.7 118.44-5.9 118.44-11.55L118.44-11.55Q118.44-17.15 121.49-20.43 124.54-23.7 129.74-23.7L129.74-23.7Q134.19-23.7 136.61-21.28 139.04-18.85 139.04-14.5L139.04-14.5Q139.04-13.35 138.79-11.6L138.79-11.6ZM133.14-14.55L133.24-15.25Q133.24-17.25 132.34-18.28 131.44-19.3 129.69-19.3L129.69-19.3Q127.74-19.3 126.44-18.03 125.14-16.75 124.69-14.35L124.69-14.35 133.14-14.55ZM156.49-23.3Q156.94-23.3 157.74-23.2L157.74-23.2 157.74-17.05 157.03-16.8Q156.19-17.15 155.19-17.15L155.19-17.15Q152.28-17.15 149.94-13.4L149.94-13.4 149.94-10.25 150.28 0 143.64 0 144.03-9.6 143.74-22.8 150.03-23.35 149.99-18.8 150.39-18.8Q152.84-23.3 156.49-23.3L156.49-23.3ZM168.83-23.65Q172.23-23.65 175.23-22.5L175.23-22.5 174.33-17.6 173.53-17.35Q172.08-18.3 170.63-18.8 169.18-19.3 168.08-19.3L168.08-19.3Q166.88-19.3 166.18-18.68 165.48-18.05 165.48-17.15L165.48-17.15Q165.48-16.1 166.41-15.45 167.33-14.8 169.33-14L169.33-14Q171.33-13.2 172.63-12.45 173.93-11.7 174.86-10.38 175.78-9.05 175.78-7.1L175.78-7.1Q175.78-5.1 174.76-3.38 173.73-1.65 171.63-0.58 169.53 0.5 166.48 0.5L166.48 0.5Q162.88 0.5 159.03-1L159.03-1 159.78-6.2 160.43-6.6Q161.98-5.3 163.88-4.53 165.78-3.75 167.23-3.75L167.23-3.75Q168.58-3.75 169.33-4.42 170.08-5.1 170.08-6.05L170.08-6.05Q170.08-7.1 169.16-7.75 168.23-8.4 166.23-9.2L166.23-9.2Q164.18-10.1 162.88-10.83 161.58-11.55 160.66-12.9 159.73-14.25 159.73-16.25L159.73-16.25Q159.73-19.5 162.18-21.58 164.63-23.65 168.83-23.65L168.83-23.65ZM198.98-11.6L198.23-10.8 184.73-10.7Q185.18-4.45 191.08-4.45L191.08-4.45Q194.18-4.45 197.98-6.2L197.98-6.2 198.53-5.85 197.53-0.9Q193.73 0.5 190.38 0.5L190.38 0.5Q184.88 0.5 181.75-2.7 178.63-5.9 178.63-11.55L178.63-11.55Q178.63-17.15 181.68-20.43 184.73-23.7 189.93-23.7L189.93-23.7Q194.38-23.7 196.81-21.28 199.23-18.85 199.23-14.5L199.23-14.5Q199.23-13.35 198.98-11.6L198.98-11.6ZM193.33-14.55L193.43-15.25Q193.43-17.25 192.53-18.28 191.63-19.3 189.88-19.3L189.88-19.3Q187.93-19.3 186.63-18.03 185.33-16.75 184.88-14.35L184.88-14.35 193.33-14.55Z" opacity="1" transform="matrix(1,0,0,1,0,0)" fill="black" class="wordmark-text-0" id="SvgjsPath2135"></path></svg></g></svg></g><g transform="matrix(1,0,0,1,0,87.8162124722717)"><svg viewBox="0 0 232.209792 23.988124160785517" height="23.988124160785517" width="232.209792"><g transform="matrix(1,0,0,1,0,0)"><svg width="232.209792" viewBox="2 -39.65 488.79 50.5" height="23.988124160785517" data-palette-color="url(#778e031b-f5ea-4c91-b4d9-4e2979c9d992)"><path d="M29.05-34.55L31.25 0 25.2 0 24.6-14.6Q24.3-22.6 24.3-26L24.3-26 24.35-28.6 19.6-3.8 13.6-3.8 8.65-28.65Q8.7-27.15 8.7-24.05L8.7-24.05Q8.7-18.8 8.5-14.4L8.5-14.4 7.95 0 2 0 4.2-34.55 12.2-34.55 16.7-10.2 20.9-34.55 29.05-34.55ZM45.45-27.15Q50.45-27.15 53.22-23.65 56-20.15 56-13.25L56-13.25Q56-6.65 53.2-2.95 50.4 0.75 45.45 0.75L45.45 0.75Q40.5 0.75 37.7-2.88 34.9-6.5 34.9-13.25L34.9-13.25Q34.9-19.95 37.7-23.55 40.5-27.15 45.45-27.15L45.45-27.15ZM45.45-22.5Q43.3-22.5 42.3-20.38 41.3-18.25 41.3-13.25L41.3-13.25Q41.3-8.2 42.3-6.08 43.3-3.95 45.45-3.95L45.45-3.95Q47.6-3.95 48.6-6.08 49.6-8.2 49.6-13.25L49.6-13.25Q49.6-18.3 48.6-20.4 47.6-22.5 45.45-22.5L45.45-22.5ZM72.2-27.1Q73.35-27.1 74.25-26.75L74.25-26.75 73.25-20.85Q72.25-21.1 71.4-21.1L71.4-21.1Q69.5-21.1 68.4-19.45 67.3-17.8 66.7-14.55L66.7-14.55 66.7 0 60.55 0 60.55-26.45 65.9-26.45 66.35-21.85Q68.2-27.1 72.2-27.1L72.2-27.1ZM90.04-37.7L96.19-37.05 96.19 0 90.74 0 90.44-3.05Q88.09 0.75 84.39 0.75L84.39 0.75Q80.29 0.75 78.12-2.93 75.94-6.6 75.94-13.2L75.94-13.2Q75.94-17.4 77.07-20.58 78.19-23.75 80.19-25.45 82.19-27.15 84.79-27.15L84.79-27.15Q87.99-27.15 90.04-24.5L90.04-24.5 90.04-37.7ZM86.14-3.9Q87.29-3.9 88.22-4.7 89.14-5.5 90.04-7L90.04-7 90.04-19.85Q88.44-22.55 86.39-22.55L86.39-22.55Q82.34-22.55 82.34-13.25L82.34-13.25Q82.34-8.2 83.34-6.05 84.34-3.9 86.14-3.9L86.14-3.9ZM120.74-13.85Q120.74-13.4 120.59-11.3L120.59-11.3 106.94-11.3Q107.14-7.2 108.37-5.58 109.59-3.95 111.84-3.95L111.84-3.95Q113.39-3.95 114.64-4.48 115.89-5 117.34-6.15L117.34-6.15 119.89-2.65Q116.39 0.75 111.49 0.75L111.49 0.75Q106.29 0.75 103.52-2.85 100.74-6.45 100.74-13L100.74-13Q100.74-19.55 103.39-23.35 106.04-27.15 110.89-27.15L110.89-27.15Q115.54-27.15 118.14-23.78 120.74-20.4 120.74-13.85L120.74-13.85ZM114.74-15.3L114.74-15.65Q114.74-19.4 113.84-21.13 112.94-22.85 110.94-22.85L110.94-22.85Q109.09-22.85 108.12-21.18 107.14-19.5 106.94-15.3L106.94-15.3 114.74-15.3ZM136.69-27.1Q137.84-27.1 138.74-26.75L138.74-26.75 137.74-20.85Q136.74-21.1 135.89-21.1L135.89-21.1Q133.99-21.1 132.89-19.45 131.79-17.8 131.19-14.55L131.19-14.55 131.19 0 125.04 0 125.04-26.45 130.39-26.45 130.84-21.85Q132.69-27.1 136.69-27.1L136.69-27.1ZM153.94-27.15Q156.79-27.15 158.44-25.1 160.09-23.05 160.09-19.6L160.09-19.6 160.09 0 153.94 0 153.94-18.9Q153.94-20.8 153.41-21.63 152.89-22.45 151.89-22.45L151.89-22.45Q149.79-22.45 147.74-18.5L147.74-18.5 147.74 0 141.59 0 141.59-26.45 146.94-26.45 147.39-23Q148.74-25.1 150.26-26.13 151.79-27.15 153.94-27.15L153.94-27.15ZM187.13-35.25Q189.78-35.25 191.81-34.38 193.83-33.5 195.73-31.7L195.73-31.7 192.68-28.05Q191.38-29.25 190.16-29.83 188.93-30.4 187.48-30.4L187.48-30.4Q184.48-30.4 182.78-27.4 181.08-24.4 181.08-17.35L181.08-17.35Q181.08-10.4 182.78-7.38 184.48-4.35 187.58-4.35L187.58-4.35Q189.13-4.35 190.28-4.98 191.43-5.6 192.98-6.9L192.98-6.9 196.03-3.4Q194.43-1.6 192.18-0.43 189.93 0.75 187.13 0.75L187.13 0.75Q181.28 0.75 177.83-3.8 174.38-8.35 174.38-17.35L174.38-17.35Q174.38-23.3 176.03-27.3 177.68-31.3 180.56-33.27 183.43-35.25 187.13-35.25L187.13-35.25ZM211.63-27.15Q214.48-27.15 216.13-25.1 217.78-23.05 217.78-19.6L217.78-19.6 217.78 0 211.63 0 211.63-18.9Q211.63-20.8 211.1-21.63 210.58-22.45 209.58-22.45L209.58-22.45Q207.48-22.45 205.43-18.5L205.43-18.5 205.43 0 199.28 0 199.28-37 205.43-37.65 205.43-23.3Q206.68-25.25 208.15-26.2 209.63-27.15 211.63-27.15L211.63-27.15ZM240.23-6.4Q240.23-5.1 240.58-4.48 240.93-3.85 241.73-3.45L241.73-3.45 240.48 0.65Q238.43 0.4 237.2-0.45 235.98-1.3 235.38-3.05L235.38-3.05Q233.08 0.75 228.93 0.75L228.93 0.75Q225.63 0.75 223.68-1.48 221.73-3.7 221.73-7.4L221.73-7.4Q221.73-11.7 224.4-13.95 227.08-16.2 232.18-16.2L232.18-16.2 234.23-16.2 234.23-18.05Q234.23-20.55 233.35-21.58 232.48-22.6 230.53-22.6L230.53-22.6Q228.18-22.6 224.68-21.3L224.68-21.3 223.28-25.3Q225.28-26.2 227.43-26.68 229.58-27.15 231.53-27.15L231.53-27.15Q240.23-27.15 240.23-18.35L240.23-18.35 240.23-6.4ZM230.58-3.7Q232.98-3.7 234.23-7L234.23-7 234.23-12.55 232.78-12.55Q230.23-12.55 229.05-11.4 227.88-10.25 227.88-7.85L227.88-7.85Q227.88-5.8 228.58-4.75 229.28-3.7 230.58-3.7L230.58-3.7ZM257.17-5L259.32-1.2Q256.87 0.75 253.57 0.75L253.57 0.75Q250.12 0.75 248.32-1.23 246.52-3.2 246.52-6.6L246.52-6.6 246.52-22 243.42-22 243.42-26.45 246.52-26.45 246.52-32.3 252.67-33.05 252.67-26.45 257.67-26.45 257.07-22 252.67-22 252.67-6.6Q252.67-4.2 254.72-4.2L254.72-4.2Q255.37-4.2 255.87-4.38 256.37-4.55 257.17-5L257.17-5ZM274.07-13.2L261.17-13.2 261.17-18.1 274.07-18.1 274.07-13.2ZM301.17 0L294.72 0 293.02-8.1 284.12-8.1 282.47 0 276.12 0 284.82-34.55 292.52-34.55 301.17 0ZM288.57-29.7L285.12-12.9 292.07-12.9 288.57-29.7ZM316.12-27.15Q320.02-27.15 322.02-23.58 324.02-20 324.02-13.3L324.02-13.3Q324.02-6.8 321.74-3.03 319.47 0.75 315.42 0.75L315.42 0.75Q312.22 0.75 310.07-2.1L310.07-2.1 310.07 10.15 303.92 10.85 303.92-26.45 309.37-26.45 309.62-23.25Q310.92-25.25 312.52-26.2 314.12-27.15 316.12-27.15L316.12-27.15ZM313.77-3.95Q315.67-3.95 316.67-6.13 317.67-8.3 317.67-13.25L317.67-13.25Q317.67-18.45 316.82-20.5 315.97-22.55 314.17-22.55L314.17-22.55Q311.87-22.55 310.07-19.25L310.07-19.25 310.07-6.45Q311.67-3.95 313.77-3.95L313.77-3.95ZM340.81-27.15Q344.71-27.15 346.71-23.58 348.71-20 348.71-13.3L348.71-13.3Q348.71-6.8 346.44-3.03 344.16 0.75 340.11 0.75L340.11 0.75Q336.91 0.75 334.76-2.1L334.76-2.1 334.76 10.15 328.61 10.85 328.61-26.45 334.06-26.45 334.31-23.25Q335.61-25.25 337.21-26.2 338.81-27.15 340.81-27.15L340.81-27.15ZM338.46-3.95Q340.36-3.95 341.36-6.13 342.36-8.3 342.36-13.25L342.36-13.25Q342.36-18.45 341.51-20.5 340.66-22.55 338.86-22.55L338.86-22.55Q336.56-22.55 334.76-19.25L334.76-19.25 334.76-6.45Q336.36-3.95 338.46-3.95L338.46-3.95ZM358.91 0.75Q356.21 0.75 354.64-0.93 353.06-2.6 353.06-5.4L353.06-5.4 353.06-37.05 359.21-37.7 359.21-5.65Q359.21-5 359.51-4.6 359.81-4.2 360.41-4.2L360.41-4.2Q360.76-4.2 361.09-4.3 361.41-4.4 361.51-4.4L361.51-4.4 362.71-0.2Q361.01 0.75 358.91 0.75L358.91 0.75ZM365.76-26.45L371.91-26.45 371.91 0 365.76 0 365.76-26.45ZM368.81-39.65Q370.46-39.65 371.48-38.6 372.51-37.55 372.51-35.9L372.51-35.9Q372.51-34.3 371.48-33.25 370.46-32.2 368.81-32.2L368.81-32.2Q367.16-32.2 366.13-33.25 365.11-34.3 365.11-35.9L365.11-35.9Q365.11-37.55 366.13-38.6 367.16-39.65 368.81-39.65L368.81-39.65ZM387.11-27.15Q389.26-27.15 391.01-26.43 392.76-25.7 394.36-24.15L394.36-24.15 391.71-20.65Q390.61-21.55 389.63-21.98 388.66-22.4 387.51-22.4L387.51-22.4Q385.26-22.4 384.11-20.28 382.96-18.15 382.96-13.1L382.96-13.1Q382.96-8.2 384.13-6.2 385.31-4.2 387.51-4.2L387.51-4.2Q388.61-4.2 389.51-4.6 390.41-5 391.61-5.85L391.61-5.85 394.36-2.3Q391.16 0.75 387.21 0.75L387.21 0.75Q382.11 0.75 379.28-2.73 376.46-6.2 376.46-13L376.46-13Q376.46-17.4 377.76-20.6 379.06-23.8 381.48-25.48 383.91-27.15 387.11-27.15L387.11-27.15ZM414.3-6.4Q414.3-5.1 414.65-4.48 415-3.85 415.8-3.45L415.8-3.45 414.55 0.65Q412.5 0.4 411.28-0.45 410.05-1.3 409.45-3.05L409.45-3.05Q407.15 0.75 403 0.75L403 0.75Q399.7 0.75 397.75-1.48 395.8-3.7 395.8-7.4L395.8-7.4Q395.8-11.7 398.48-13.95 401.15-16.2 406.25-16.2L406.25-16.2 408.3-16.2 408.3-18.05Q408.3-20.55 407.43-21.58 406.55-22.6 404.6-22.6L404.6-22.6Q402.25-22.6 398.75-21.3L398.75-21.3 397.35-25.3Q399.35-26.2 401.5-26.68 403.65-27.15 405.6-27.15L405.6-27.15Q414.3-27.15 414.3-18.35L414.3-18.35 414.3-6.4ZM404.65-3.7Q407.05-3.7 408.3-7L408.3-7 408.3-12.55 406.85-12.55Q404.3-12.55 403.13-11.4 401.95-10.25 401.95-7.85L401.95-7.85Q401.95-5.8 402.65-4.75 403.35-3.7 404.65-3.7L404.65-3.7ZM431.25-5L433.4-1.2Q430.95 0.75 427.65 0.75L427.65 0.75Q424.2 0.75 422.4-1.23 420.6-3.2 420.6-6.6L420.6-6.6 420.6-22 417.5-22 417.5-26.45 420.6-26.45 420.6-32.3 426.75-33.05 426.75-26.45 431.75-26.45 431.15-22 426.75-22 426.75-6.6Q426.75-4.2 428.8-4.2L428.8-4.2Q429.45-4.2 429.95-4.38 430.45-4.55 431.25-5L431.25-5ZM435.95-26.45L442.1-26.45 442.1 0 435.95 0 435.95-26.45ZM439-39.65Q440.65-39.65 441.67-38.6 442.7-37.55 442.7-35.9L442.7-35.9Q442.7-34.3 441.67-33.25 440.65-32.2 439-32.2L439-32.2Q437.35-32.2 436.32-33.25 435.3-34.3 435.3-35.9L435.3-35.9Q435.3-37.55 436.32-38.6 437.35-39.65 439-39.65L439-39.65ZM457.2-27.15Q462.2-27.15 464.97-23.65 467.75-20.15 467.75-13.25L467.75-13.25Q467.75-6.65 464.95-2.95 462.15 0.75 457.2 0.75L457.2 0.75Q452.25 0.75 449.45-2.88 446.65-6.5 446.65-13.25L446.65-13.25Q446.65-19.95 449.45-23.55 452.25-27.15 457.2-27.15L457.2-27.15ZM457.2-22.5Q455.05-22.5 454.05-20.38 453.05-18.25 453.05-13.25L453.05-13.25Q453.05-8.2 454.05-6.08 455.05-3.95 457.2-3.95L457.2-3.95Q459.35-3.95 460.35-6.08 461.35-8.2 461.35-13.25L461.35-13.25Q461.35-18.3 460.35-20.4 459.35-22.5 457.2-22.5L457.2-22.5ZM484.64-27.15Q487.49-27.15 489.14-25.1 490.79-23.05 490.79-19.6L490.79-19.6 490.79 0 484.64 0 484.64-18.9Q484.64-20.8 484.12-21.63 483.59-22.45 482.59-22.45L482.59-22.45Q480.49-22.45 478.44-18.5L478.44-18.5 478.44 0 472.29 0 472.29-26.45 477.64-26.45 478.09-23Q479.44-25.1 480.97-26.13 482.49-27.15 484.64-27.15L484.64-27.15Z" opacity="1" transform="matrix(1,0,0,1,0,0)" fill="black" class="slogan-text-1" id="SvgjsPath2134"></path></svg></g></svg></g></svg></g></svg></g><g><svg viewBox="0 0 225.6464006143215 221.37258653345327" height="221.37258653345327" width="225.6464006143215"><g><svg xmlns="http://www.w3.org/2000/svg" xmlns:xlink="http://www.w3.org/1999/xlink" version="1.1" x="0" y="0" viewBox="7.637000000000002 8.599 85.285 83.66967516922709" enable-background="new 0 0 100 100" xml:space="preserve" height="221.37258653345327" width="225.6464006143215" class="icon-icon-0" data-fill-palette-color="accent" id="SvgjsSvg2133"><g fill="black"><path d="M92.922 19.558c0-6.04-4.919-10.959-10.962-10.959H18.6c-6.045 0-10.963 4.919-10.963 10.959v41.267c0 6.042 4.918 10.952 10.963 10.952h10.504v16.196c0 1.74 1.038 3.297 2.641 3.966 1.612 0.669 3.45 0.301 4.684-0.933l19.231-19.229H81.96c6.043 0 10.962-4.91 10.962-10.952V19.558zM87.011 60.824c0 2.777-2.265 5.041-5.051 5.041H54.437h-1.222l-0.869 0.87-17.33 17.328V68.819v-2.954h-2.957H18.6c-2.782 0-5.05-2.264-5.05-5.041V19.558c0-2.776 2.268-5.047 5.05-5.047h63.36c2.786 0 5.051 2.271 5.051 5.047V60.824z" fill="black"></path></g></svg></g></svg></g></svg></g><defs><mask></mask></defs></svg><rect width="395.52" height="132.4384149490604" fill="black" stroke="none" visibility="hidden"></rect></g></mask></svg><rect width="395.52" height="132.4384149490604" fill="black" stroke="none" visibility="hidden"></rect></g></mask><linearGradient x1="0.054" x2="0.941" y1="0.5" y2="0.5" id="67b94b34-0f9b-474d-9b34-9f9e32b37175"><stop stop-color="#0f3054" offset="0"></stop><stop stop-color="#3b8dcb" offset="0.498"></stop><stop stop-color="#0f3054" offset="1"></stop></linearGradient><rect width="395.52" height="132.4384149490604" fill="url(#67b94b34-0f9b-474d-9b34-9f9e32b37175)" mask="url(#9aa534ba-3f48-43e8-a280-6185a0eea1aa)" data-fill-palette-color="accent"></rect></svg><rect width="395.52" height="132.4384149490604" fill="none" stroke="none" visibility="hidden"></rect></g></svg></g></svg>