<svg xmlns="http://www.w3.org/2000/svg" version="1.1" xmlns:xlink="http://www.w3.org/1999/xlink" xmlns:svgjs="http://svgjs.dev/svgjs" width="1500" height="325" viewBox="0 0 1500 325"><g transform="matrix(1,0,0,1,-0.9090909090909918,-0.07310576246845812)"><svg viewBox="0 0 396 86" data-background-color="#ffffff" preserveAspectRatio="xMidYMid meet" height="325" width="1500" xmlns="http://www.w3.org/2000/svg" xmlns:xlink="http://www.w3.org/1999/xlink"><g id="tight-bounds" transform="matrix(1,0,0,1,0.2400000000000091,0.01934490945319567)"><svg viewBox="0 0 395.52 85.96131018109358" height="85.96131018109358" width="395.52"><g><svg viewBox="0 0 601.0205012373337 130.62426611058552" height="85.96131018109358" width="395.52"><g transform="matrix(1,0,0,1,205.5005012373337,18.05299191542825)"><svg viewBox="0 0 395.52 94.51828227972902" height="94.51828227972902" width="395.52"><g id="textblocktransform"><svg viewBox="0 0 395.52 94.51828227972902" height="94.51828227972902" width="395.52" id="textblock"><g><svg viewBox="0 0 395.52 62.34294573643411" height="62.34294573643411" width="395.52"><g transform="matrix(1,0,0,1,0,0)"><svg width="395.52" viewBox="1.1 -36 232.18 36.6" height="62.34294573643411" data-palette-color="#000000"><path d="M19.15 0L14.25 0 1.1-35 5.65-35 16.7-4.45 27.85-35 32.3-35 19.15 0ZM39.4-30.3L39.4-30.3Q38.15-30.3 37.32-31.13 36.5-31.95 36.5-33.2L36.5-33.2Q36.5-34.4 37.32-35.2 38.15-36 39.4-36L39.4-36Q40.6-36 41.45-35.2 42.3-34.4 42.3-33.2L42.3-33.2Q42.3-31.95 41.45-31.13 40.6-30.3 39.4-30.3ZM41.5 0L37.3 0 37.3-24.8 41.5-24.8 41.5 0ZM62.05 0.6L62.05 0.6Q59 0.6 56.62-0.65 54.25-1.9 53-4.15L53-4.15 52.6 0 48.8 0 48.8-36 53-36 53-20.7Q54.2-22.5 56.42-23.95 58.65-25.4 62.1-25.4L62.1-25.4Q65.8-25.4 68.55-23.7 71.3-22 72.82-19.05 74.34-16.1 74.34-12.35L74.34-12.35Q74.34-8.6 72.82-5.68 71.3-2.75 68.52-1.07 65.75 0.6 62.05 0.6ZM61.6-3.05L61.6-3.05Q64.09-3.05 66-4.23 67.9-5.4 69-7.5 70.09-9.6 70.09-12.4L70.09-12.4Q70.09-15.2 69-17.3 67.9-19.4 66-20.58 64.09-21.75 61.6-21.75L61.6-21.75Q59.1-21.75 57.2-20.58 55.3-19.4 54.2-17.3 53.1-15.2 53.1-12.4L53.1-12.4Q53.1-9.6 54.2-7.5 55.3-5.4 57.2-4.23 59.1-3.05 61.6-3.05ZM91.34 0.6L91.34 0.6Q87.79 0.6 85.04-1.03 82.29-2.65 80.72-5.55 79.14-8.45 79.14-12.4L79.14-12.4Q79.14-16.3 80.69-19.23 82.24-22.15 85.02-23.78 87.79-25.4 91.44-25.4L91.44-25.4Q95.04-25.4 97.67-23.78 100.29-22.15 101.69-19.5 103.09-16.85 103.09-13.8L103.09-13.8Q103.09-13.25 103.07-12.7 103.04-12.15 103.04-11.45L103.04-11.45 83.29-11.45Q83.44-8.6 84.62-6.73 85.79-4.85 87.57-3.9 89.34-2.95 91.34-2.95L91.34-2.95Q93.94-2.95 95.69-4.15 97.44-5.35 98.24-7.4L98.24-7.4 102.39-7.4Q101.39-3.95 98.57-1.68 95.74 0.6 91.34 0.6ZM91.34-21.85L91.34-21.85Q88.34-21.85 86.02-20.03 83.69-18.2 83.34-14.7L83.34-14.7 98.94-14.7Q98.79-18.05 96.64-19.95 94.49-21.85 91.34-21.85ZM124.34 0L119.44 0 106.29-35 110.84-35 121.89-4.45 133.04-35 137.49-35 124.34 0ZM149.94 0.6L149.94 0.6Q146.39 0.6 143.64-1.03 140.89-2.65 139.31-5.55 137.74-8.45 137.74-12.4L137.74-12.4Q137.74-16.3 139.29-19.23 140.84-22.15 143.61-23.78 146.39-25.4 150.04-25.4L150.04-25.4Q153.64-25.4 156.26-23.78 158.89-22.15 160.29-19.5 161.69-16.85 161.69-13.8L161.69-13.8Q161.69-13.25 161.66-12.7 161.64-12.15 161.64-11.45L161.64-11.45 141.89-11.45Q142.04-8.6 143.21-6.73 144.39-4.85 146.16-3.9 147.94-2.95 149.94-2.95L149.94-2.95Q152.54-2.95 154.29-4.15 156.04-5.35 156.84-7.4L156.84-7.4 160.99-7.4Q159.99-3.95 157.16-1.68 154.34 0.6 149.94 0.6ZM149.94-21.85L149.94-21.85Q146.94-21.85 144.61-20.03 142.29-18.2 141.94-14.7L141.94-14.7 157.54-14.7Q157.39-18.05 155.24-19.95 153.09-21.85 149.94-21.85ZM171.44 0L167.24 0 167.24-24.8 171.04-24.8 171.39-20.05Q172.54-22.5 174.89-23.95 177.24-25.4 180.69-25.4L180.69-25.4 180.69-21 179.54-21Q177.34-21 175.49-20.23 173.64-19.45 172.54-17.6 171.44-15.75 171.44-12.5L171.44-12.5 171.44 0ZM194.88 0.6L194.88 0.6Q190.43 0.6 187.48-1.65 184.53-3.9 184.03-7.75L184.03-7.75 188.33-7.75Q188.73-5.8 190.41-4.38 192.08-2.95 194.93-2.95L194.93-2.95Q197.58-2.95 198.83-4.08 200.08-5.2 200.08-6.75L200.08-6.75Q200.08-9 198.46-9.75 196.83-10.5 193.88-11.1L193.88-11.1Q191.88-11.5 189.88-12.25 187.88-13 186.53-14.38 185.18-15.75 185.18-18L185.18-18Q185.18-21.25 187.61-23.33 190.03-25.4 194.18-25.4L194.18-25.4Q198.13-25.4 200.66-23.43 203.18-21.45 203.58-17.8L203.58-17.8 199.43-17.8Q199.18-19.7 197.81-20.78 196.43-21.85 194.13-21.85L194.13-21.85Q191.88-21.85 190.66-20.9 189.43-19.95 189.43-18.4L189.43-18.4Q189.43-16.9 191.01-16.05 192.58-15.2 195.28-14.6L195.28-14.6Q197.58-14.1 199.66-13.38 201.73-12.65 203.06-11.23 204.38-9.8 204.38-7.1L204.38-7.1Q204.43-3.75 201.86-1.58 199.28 0.6 194.88 0.6ZM221.53 0.6L221.53 0.6Q217.98 0.6 215.23-1.03 212.48-2.65 210.91-5.55 209.33-8.45 209.33-12.4L209.33-12.4Q209.33-16.3 210.88-19.23 212.43-22.15 215.21-23.78 217.98-25.4 221.63-25.4L221.63-25.4Q225.23-25.4 227.86-23.78 230.48-22.15 231.88-19.5 233.28-16.85 233.28-13.8L233.28-13.8Q233.28-13.25 233.26-12.7 233.23-12.15 233.23-11.45L233.23-11.45 213.48-11.45Q213.63-8.6 214.81-6.73 215.98-4.85 217.76-3.9 219.53-2.95 221.53-2.95L221.53-2.95Q224.13-2.95 225.88-4.15 227.63-5.35 228.43-7.4L228.43-7.4 232.58-7.4Q231.58-3.95 228.76-1.68 225.93 0.6 221.53 0.6ZM221.53-21.85L221.53-21.85Q218.53-21.85 216.21-20.03 213.88-18.2 213.53-14.7L213.53-14.7 229.13-14.7Q228.98-18.05 226.83-19.95 224.68-21.85 221.53-21.85Z" opacity="1" transform="matrix(1,0,0,1,0,0)" fill="#000000" class="wordmark-text-0" data-fill-palette-color="primary" id="text-0"></path></svg></g></svg></g><g transform="matrix(1,0,0,1,0,77.06061899410852)"><svg viewBox="0 0 232.209792 17.45766328562049" height="17.45766328562049" width="232.209792"><g transform="matrix(1,0,0,1,0,0)"><svg width="232.209792" viewBox="3.9 -36.3 609.14 45.8" height="17.45766328562049" data-palette-color="#000000"><path d="M9.35 0L5.15 0Q4.6 0 4.25-0.35 3.9-0.7 3.9-1.2L3.9-1.2 3.9-33.75Q3.9-34.3 4.25-34.65 4.6-35 5.15-35L5.15-35 9.1-35Q9.8-35 10.15-34.63 10.5-34.25 10.6-34.05L10.6-34.05 20.25-16.05 30-34.05Q30.1-34.25 30.45-34.63 30.8-35 31.5-35L31.5-35 35.4-35Q35.95-35 36.3-34.65 36.65-34.3 36.65-33.75L36.65-33.75 36.65-1.2Q36.65-0.7 36.3-0.35 35.95 0 35.4 0L35.4 0 31.2 0Q30.65 0 30.33-0.35 30-0.7 30-1.2L30-1.2 30-22.85 23-9.5Q22.75-9.05 22.35-8.72 21.95-8.4 21.3-8.4L21.3-8.4 19.25-8.4Q18.55-8.4 18.18-8.72 17.8-9.05 17.55-9.5L17.55-9.5 10.55-22.85 10.55-1.2Q10.55-0.7 10.2-0.35 9.85 0 9.35 0L9.35 0ZM55.35 0.5L55.35 0.5Q51.35 0.5 48.62-0.9 45.9-2.3 44.47-4.85 43.05-7.4 42.85-10.8L42.85-10.8Q42.8-11.7 42.8-13 42.8-14.3 42.85-15.2L42.85-15.2Q43.05-18.65 44.52-21.18 46-23.7 48.72-25.1 51.45-26.5 55.35-26.5L55.35-26.5Q59.25-26.5 61.97-25.1 64.7-23.7 66.17-21.18 67.65-18.65 67.85-15.2L67.85-15.2Q67.9-14.3 67.9-13 67.9-11.7 67.85-10.8L67.85-10.8Q67.65-7.4 66.22-4.85 64.8-2.3 62.07-0.9 59.35 0.5 55.35 0.5ZM55.35-4.45L55.35-4.45Q58-4.45 59.45-6.13 60.9-7.8 61.05-11.05L61.05-11.05Q61.1-11.8 61.1-13 61.1-14.2 61.05-14.95L61.05-14.95Q60.9-18.2 59.45-19.88 58-21.55 55.35-21.55L55.35-21.55Q52.7-21.55 51.25-19.88 49.8-18.2 49.65-14.95L49.65-14.95Q49.6-14.2 49.6-13 49.6-11.8 49.65-11.05L49.65-11.05Q49.8-7.8 51.25-6.13 52.7-4.45 55.35-4.45ZM79 0L74.65 0Q74.15 0 73.8-0.35 73.45-0.7 73.45-1.2L73.45-1.2 73.45-24.75Q73.45-25.3 73.8-25.65 74.15-26 74.65-26L74.65-26 78.7-26Q79.2-26 79.57-25.65 79.95-25.3 79.95-24.75L79.95-24.75 79.95-22.7Q81.1-24.3 82.92-25.15 84.75-26 87.15-26L87.15-26 89.2-26Q89.75-26 90.07-25.65 90.4-25.3 90.4-24.8L90.4-24.8 90.4-21.2Q90.4-20.7 90.07-20.35 89.75-20 89.2-20L89.2-20 85.3-20Q82.9-20 81.57-18.68 80.25-17.35 80.25-14.95L80.25-14.95 80.25-1.2Q80.25-0.7 79.9-0.35 79.55 0 79 0L79 0ZM103.94 0.5L103.94 0.5Q101.34 0.5 99.37-0.38 97.39-1.25 96.09-2.85 94.79-4.45 94.09-6.63 93.39-8.8 93.29-11.4L93.29-11.4Q93.24-12.3 93.24-13.03 93.24-13.75 93.29-14.65L93.29-14.65Q93.39-17.15 94.07-19.3 94.74-21.45 96.07-23.08 97.39-24.7 99.37-25.6 101.34-26.5 103.94-26.5L103.94-26.5Q106.64-26.5 108.52-25.58 110.39-24.65 111.64-23.2L111.64-23.2 111.64-34.3Q111.64-34.8 111.97-35.15 112.29-35.5 112.84-35.5L112.84-35.5 117.09-35.5Q117.59-35.5 117.94-35.15 118.29-34.8 118.29-34.3L118.29-34.3 118.29-1.2Q118.29-0.7 117.94-0.35 117.59 0 117.09 0L117.09 0 113.14 0Q112.59 0 112.27-0.35 111.94-0.7 111.94-1.2L111.94-1.2 111.94-3.05Q110.69-1.5 108.77-0.5 106.84 0.5 103.94 0.5ZM105.79-4.85L105.79-4.85Q107.89-4.85 109.14-5.8 110.39-6.75 110.99-8.22 111.59-9.7 111.64-11.25L111.64-11.25Q111.69-12.15 111.69-13.18 111.69-14.2 111.64-15.1L111.64-15.1Q111.59-16.6 110.94-17.98 110.29-19.35 109.04-20.25 107.79-21.15 105.79-21.15L105.79-21.15Q103.69-21.15 102.47-20.23 101.24-19.3 100.69-17.8 100.14-16.3 100.04-14.5L100.04-14.5Q99.99-13 100.04-11.5L100.04-11.5Q100.14-9.7 100.69-8.2 101.24-6.7 102.47-5.78 103.69-4.85 105.79-4.85ZM136.14 0.5L136.14 0.5Q130.59 0.5 127.34-2.7 124.09-5.9 123.84-11.8L123.84-11.8Q123.79-12.3 123.79-13.08 123.79-13.85 123.84-14.3L123.84-14.3Q124.04-18.1 125.57-20.83 127.09-23.55 129.79-25.03 132.49-26.5 136.14-26.5L136.14-26.5Q140.19-26.5 142.94-24.83 145.69-23.15 147.09-20.18 148.49-17.2 148.49-13.3L148.49-13.3 148.49-12.25Q148.49-11.75 148.14-11.4 147.79-11.05 147.24-11.05L147.24-11.05 130.64-11.05Q130.64-11.05 130.64-10.9 130.64-10.75 130.64-10.65L130.64-10.65Q130.69-8.9 131.32-7.43 131.94-5.95 133.17-5.05 134.39-4.15 136.09-4.15L136.09-4.15Q137.49-4.15 138.44-4.58 139.39-5 139.99-5.55 140.59-6.1 140.84-6.45L140.84-6.45Q141.29-7.05 141.57-7.18 141.84-7.3 142.39-7.3L142.39-7.3 146.69-7.3Q147.19-7.3 147.52-7 147.84-6.7 147.79-6.25L147.79-6.25Q147.74-5.45 146.97-4.3 146.19-3.15 144.74-2.05 143.29-0.95 141.12-0.23 138.94 0.5 136.14 0.5ZM130.64-15.4L130.64-15.25 141.69-15.25 141.69-15.4Q141.69-17.35 141.04-18.82 140.39-20.3 139.14-21.13 137.89-21.95 136.14-21.95L136.14-21.95Q134.39-21.95 133.14-21.13 131.89-20.3 131.27-18.82 130.64-17.35 130.64-15.4L130.64-15.4ZM159.34 0L154.99 0Q154.49 0 154.14-0.35 153.79-0.7 153.79-1.2L153.79-1.2 153.79-24.75Q153.79-25.3 154.14-25.65 154.49-26 154.99-26L154.99-26 159.04-26Q159.54-26 159.91-25.65 160.29-25.3 160.29-24.75L160.29-24.75 160.29-22.7Q161.44-24.3 163.26-25.15 165.09-26 167.49-26L167.49-26 169.54-26Q170.09-26 170.41-25.65 170.74-25.3 170.74-24.8L170.74-24.8 170.74-21.2Q170.74-20.7 170.41-20.35 170.09-20 169.54-20L169.54-20 165.64-20Q163.24-20 161.91-18.68 160.59-17.35 160.59-14.95L160.59-14.95 160.59-1.2Q160.59-0.7 160.24-0.35 159.89 0 159.34 0L159.34 0ZM180.24 0L175.84 0Q175.34 0 174.99-0.35 174.64-0.7 174.64-1.2L174.64-1.2 174.64-24.8Q174.64-25.3 174.99-25.65 175.34-26 175.84-26L175.84-26 179.94-26Q180.44-26 180.78-25.65 181.14-25.3 181.14-24.8L181.14-24.8 181.14-22.75Q182.44-24.35 184.46-25.43 186.49-26.5 189.49-26.5L189.49-26.5Q192.54-26.5 194.79-25.13 197.04-23.75 198.26-21.25 199.49-18.75 199.49-15.25L199.49-15.25 199.49-1.2Q199.49-0.7 199.14-0.35 198.79 0 198.29 0L198.29 0 193.89 0Q193.39 0 193.04-0.35 192.69-0.7 192.69-1.2L192.69-1.2 192.69-14.95Q192.69-17.85 191.26-19.5 189.84-21.15 187.14-21.15L187.14-21.15Q184.53-21.15 182.99-19.5 181.44-17.85 181.44-14.95L181.44-14.95 181.44-1.2Q181.44-0.7 181.09-0.35 180.74 0 180.24 0L180.24 0ZM231.38 0.5L231.38 0.5Q226.73 0.5 223.51-1.13 220.28-2.75 218.58-5.78 216.88-8.8 216.68-13.05L216.68-13.05Q216.63-15.1 216.63-17.45 216.63-19.8 216.68-21.95L216.68-21.95Q216.88-26.15 218.61-29.2 220.33-32.25 223.56-33.88 226.78-35.5 231.38-35.5L231.38-35.5Q234.78-35.5 237.48-34.6 240.18-33.7 242.08-32.13 243.98-30.55 245.03-28.45 246.08-26.35 246.13-23.9L246.13-23.9Q246.18-23.45 245.86-23.15 245.53-22.85 245.08-22.85L245.08-22.85 240.33-22.85Q239.78-22.85 239.43-23.13 239.08-23.4 238.93-24.05L238.93-24.05Q238.13-27.35 236.18-28.55 234.23-29.75 231.33-29.75L231.33-29.75Q227.98-29.75 225.98-27.88 223.98-26 223.83-21.7L223.83-21.7Q223.68-17.6 223.83-13.3L223.83-13.3Q223.98-9 225.98-7.13 227.98-5.25 231.33-5.25L231.33-5.25Q234.23-5.25 236.21-6.48 238.18-7.7 238.93-10.95L238.93-10.95Q239.08-11.65 239.43-11.9 239.78-12.15 240.33-12.15L240.33-12.15 245.08-12.15Q245.53-12.15 245.86-11.85 246.18-11.55 246.13-11.1L246.13-11.1Q246.08-8.65 245.03-6.55 243.98-4.45 242.08-2.88 240.18-1.3 237.48-0.4 234.78 0.5 231.38 0.5ZM257.18 0L252.73 0Q252.23 0 251.88-0.35 251.53-0.7 251.53-1.2L251.53-1.2 251.53-34.3Q251.53-34.8 251.88-35.15 252.23-35.5 252.73-35.5L252.73-35.5 257.18-35.5Q257.73-35.5 258.05-35.15 258.38-34.8 258.38-34.3L258.38-34.3 258.38-22.9Q259.73-24.5 261.68-25.5 263.63-26.5 266.48-26.5L266.48-26.5Q269.53-26.5 271.8-25.13 274.08-23.75 275.33-21.25 276.58-18.75 276.58-15.25L276.58-15.25 276.58-1.2Q276.58-0.7 276.23-0.35 275.88 0 275.38 0L275.38 0 270.88 0Q270.38 0 270.03-0.35 269.68-0.7 269.68-1.2L269.68-1.2 269.68-14.95Q269.68-17.85 268.25-19.5 266.83-21.15 264.13-21.15L264.13-21.15Q261.53-21.15 259.95-19.5 258.38-17.85 258.38-14.95L258.38-14.95 258.38-1.2Q258.38-0.7 258.05-0.35 257.73 0 257.18 0L257.18 0ZM290.48 0.5L290.48 0.5Q287.88 0.5 285.77-0.53 283.68-1.55 282.45-3.28 281.23-5 281.23-7.15L281.23-7.15Q281.23-10.65 284.07-12.73 286.93-14.8 291.52-15.5L291.52-15.5 298.38-16.5 298.38-17.55Q298.38-19.65 297.32-20.8 296.27-21.95 293.73-21.95L293.73-21.95Q291.93-21.95 290.8-21.23 289.68-20.5 289.13-19.3L289.13-19.3Q288.73-18.65 287.98-18.65L287.98-18.65 284.02-18.65Q283.48-18.65 283.2-18.95 282.93-19.25 282.93-19.75L282.93-19.75Q282.98-20.55 283.6-21.7 284.23-22.85 285.5-23.93 286.77-25 288.82-25.75 290.88-26.5 293.77-26.5L293.77-26.5Q296.93-26.5 299.1-25.73 301.27-24.95 302.57-23.65 303.88-22.35 304.48-20.6 305.07-18.85 305.07-16.9L305.07-16.9 305.07-1.2Q305.07-0.7 304.73-0.35 304.38 0 303.88 0L303.88 0 299.82 0Q299.27 0 298.95-0.35 298.63-0.7 298.63-1.2L298.63-1.2 298.63-3.15Q297.98-2.25 296.88-1.4 295.77-0.55 294.2-0.03 292.63 0.5 290.48 0.5ZM292.18-4.25L292.18-4.25Q293.93-4.25 295.35-5 296.77-5.75 297.6-7.33 298.43-8.9 298.43-11.3L298.43-11.3 298.43-12.35 293.43-11.55Q290.48-11.1 289.02-10.1 287.57-9.1 287.57-7.65L287.57-7.65Q287.57-6.55 288.25-5.78 288.93-5 289.98-4.63 291.02-4.25 292.18-4.25ZM327.27 0L323.22 0Q320.22 0 318.17-1.05 316.12-2.1 315.12-4.17 314.12-6.25 314.12-9.35L314.12-9.35 314.12-20.7 310.17-20.7Q309.67-20.7 309.32-21.05 308.97-21.4 308.97-21.95L308.97-21.95 308.97-24.8Q308.97-25.3 309.32-25.65 309.67-26 310.17-26L310.17-26 314.12-26 314.12-34.3Q314.12-34.8 314.45-35.15 314.77-35.5 315.32-35.5L315.32-35.5 319.37-35.5Q319.87-35.5 320.22-35.15 320.57-34.8 320.57-34.3L320.57-34.3 320.57-26 326.82-26Q327.32-26 327.67-25.65 328.02-25.3 328.02-24.8L328.02-24.8 328.02-21.95Q328.02-21.4 327.67-21.05 327.32-20.7 326.82-20.7L326.82-20.7 320.57-20.7 320.57-9.85Q320.57-7.8 321.3-6.65 322.02-5.5 323.82-5.5L323.82-5.5 327.27-5.5Q327.77-5.5 328.12-5.15 328.47-4.8 328.47-4.3L328.47-4.3 328.47-1.2Q328.47-0.7 328.12-0.35 327.77 0 327.27 0L327.27 0ZM347.17 0L342.82 0Q342.42 0 342.09-0.3 341.77-0.6 341.77-1.05L341.77-1.05Q341.77-1.25 341.87-1.5L341.87-1.5 353.92-33.75Q354.07-34.25 354.49-34.63 354.92-35 355.67-35L355.67-35 361.12-35Q361.87-35 362.27-34.63 362.67-34.25 362.87-33.75L362.87-33.75 374.92-1.5Q374.97-1.25 374.97-1.05L374.97-1.05Q374.97-0.6 374.67-0.3 374.37 0 373.97 0L373.97 0 369.62 0Q368.92 0 368.59-0.33 368.27-0.65 368.17-0.95L368.17-0.95 365.82-7.05 350.97-7.05 348.62-0.95Q348.52-0.65 348.19-0.33 347.87 0 347.17 0L347.17 0ZM358.37-28.25L352.72-12.8 364.07-12.8 358.37-28.25ZM384.51 9.5L380.26 9.5Q379.76 9.5 379.41 9.15 379.06 8.8 379.06 8.3L379.06 8.3 379.06-24.8Q379.06-25.3 379.41-25.65 379.76-26 380.26-26L380.26-26 384.21-26Q384.76-26 385.09-25.65 385.41-25.3 385.41-24.8L385.41-24.8 385.41-22.8Q386.61-24.4 388.56-25.45 390.51-26.5 393.41-26.5L393.41-26.5Q396.06-26.5 398.01-25.65 399.96-24.8 401.26-23.23 402.56-21.65 403.26-19.5 403.96-17.35 404.06-14.75L404.06-14.75Q404.11-13.9 404.11-13 404.11-12.1 404.06-11.2L404.06-11.2Q404.01-8.7 403.31-6.58 402.61-4.45 401.29-2.88 399.96-1.3 398.01-0.4 396.06 0.5 393.41 0.5L393.41 0.5Q390.71 0.5 388.81-0.48 386.91-1.45 385.71-3.05L385.71-3.05 385.71 8.3Q385.71 8.8 385.39 9.15 385.06 9.5 384.51 9.5L384.51 9.5ZM391.56-4.85L391.56-4.85Q393.71-4.85 394.91-5.78 396.11-6.7 396.66-8.2 397.21-9.7 397.31-11.5L397.31-11.5Q397.36-13 397.31-14.5L397.31-14.5Q397.21-16.3 396.66-17.8 396.11-19.3 394.91-20.23 393.71-21.15 391.56-21.15L391.56-21.15Q389.51-21.15 388.24-20.2 386.96-19.25 386.39-17.78 385.81-16.3 385.71-14.75L385.71-14.75Q385.66-13.85 385.66-12.85 385.66-11.85 385.71-10.9L385.71-10.9Q385.76-9.4 386.41-8.03 387.06-6.65 388.31-5.75 389.56-4.85 391.56-4.85ZM415.21 9.5L410.96 9.5Q410.46 9.5 410.11 9.15 409.76 8.8 409.76 8.3L409.76 8.3 409.76-24.8Q409.76-25.3 410.11-25.65 410.46-26 410.96-26L410.96-26 414.91-26Q415.46-26 415.79-25.65 416.11-25.3 416.11-24.8L416.11-24.8 416.11-22.8Q417.31-24.4 419.26-25.45 421.21-26.5 424.11-26.5L424.11-26.5Q426.76-26.5 428.71-25.65 430.66-24.8 431.96-23.23 433.26-21.65 433.96-19.5 434.66-17.35 434.76-14.75L434.76-14.75Q434.81-13.9 434.81-13 434.81-12.1 434.76-11.2L434.76-11.2Q434.71-8.7 434.01-6.58 433.31-4.45 431.99-2.88 430.66-1.3 428.71-0.4 426.76 0.5 424.11 0.5L424.11 0.5Q421.41 0.5 419.51-0.48 417.61-1.45 416.41-3.05L416.41-3.05 416.41 8.3Q416.41 8.8 416.09 9.15 415.76 9.5 415.21 9.5L415.21 9.5ZM422.26-4.85L422.26-4.85Q424.41-4.85 425.61-5.78 426.81-6.7 427.36-8.2 427.91-9.7 428.01-11.5L428.01-11.5Q428.06-13 428.01-14.5L428.01-14.5Q427.91-16.3 427.36-17.8 426.81-19.3 425.61-20.23 424.41-21.15 422.26-21.15L422.26-21.15Q420.21-21.15 418.94-20.2 417.66-19.25 417.09-17.78 416.51-16.3 416.41-14.75L416.41-14.75Q416.36-13.85 416.36-12.85 416.36-11.85 416.41-10.9L416.41-10.9Q416.46-9.4 417.11-8.03 417.76-6.65 419.01-5.75 420.26-4.85 422.26-4.85ZM445.81 0L441.66 0Q441.16 0 440.81-0.35 440.46-0.7 440.46-1.2L440.46-1.2 440.46-34.3Q440.46-34.8 440.81-35.15 441.16-35.5 441.66-35.5L441.66-35.5 445.81-35.5Q446.31-35.5 446.66-35.15 447.01-34.8 447.01-34.3L447.01-34.3 447.01-1.2Q447.01-0.7 446.66-0.35 446.31 0 445.81 0L445.81 0ZM459.01 0L454.86 0Q454.36 0 454.01-0.35 453.66-0.7 453.66-1.2L453.66-1.2 453.66-24.8Q453.66-25.3 454.01-25.65 454.36-26 454.86-26L454.86-26 459.01-26Q459.56-26 459.88-25.65 460.21-25.3 460.21-24.8L460.21-24.8 460.21-1.2Q460.21-0.7 459.88-0.35 459.56 0 459.01 0L459.01 0ZM459.21-30.3L454.66-30.3Q454.16-30.3 453.81-30.65 453.46-31 453.46-31.5L453.46-31.5 453.46-35.1Q453.46-35.6 453.81-35.95 454.16-36.3 454.66-36.3L454.66-36.3 459.21-36.3Q459.76-36.3 460.11-35.95 460.46-35.6 460.46-35.1L460.46-35.1 460.46-31.5Q460.46-31 460.11-30.65 459.76-30.3 459.21-30.3L459.21-30.3ZM478.1 0.5L478.1 0.5Q474.5 0.5 471.78-0.85 469.05-2.2 467.53-4.78 466-7.35 465.85-11L465.85-11Q465.8-11.75 465.8-12.98 465.8-14.2 465.85-15L465.85-15Q466-18.65 467.53-21.23 469.05-23.8 471.78-25.15 474.5-26.5 478.1-26.5L478.1-26.5Q481.3-26.5 483.55-25.63 485.8-24.75 487.25-23.38 488.7-22 489.43-20.53 490.15-19.05 490.2-17.85L490.2-17.85Q490.25-17.3 489.88-16.98 489.5-16.65 489-16.65L489-16.65 484.6-16.65Q484.1-16.65 483.83-16.9 483.55-17.15 483.3-17.65L483.3-17.65Q482.55-19.65 481.33-20.48 480.1-21.3 478.2-21.3L478.2-21.3Q475.7-21.3 474.23-19.73 472.75-18.15 472.65-14.75L472.65-14.75Q472.55-12.85 472.65-11.25L472.65-11.25Q472.75-7.8 474.23-6.25 475.7-4.7 478.2-4.7L478.2-4.7Q480.15-4.7 481.35-5.53 482.55-6.35 483.3-8.35L483.3-8.35Q483.55-8.85 483.83-9.1 484.1-9.35 484.6-9.35L484.6-9.35 489-9.35Q489.5-9.35 489.88-9.03 490.25-8.7 490.2-8.15L490.2-8.15Q490.15-7.25 489.73-6.13 489.3-5 488.38-3.83 487.45-2.65 486.05-1.68 484.65-0.7 482.68-0.1 480.7 0.5 478.1 0.5ZM502.95 0.5L502.95 0.5Q500.35 0.5 498.25-0.53 496.15-1.55 494.93-3.28 493.7-5 493.7-7.15L493.7-7.15Q493.7-10.65 496.55-12.73 499.4-14.8 504-15.5L504-15.5 510.85-16.5 510.85-17.55Q510.85-19.65 509.8-20.8 508.75-21.95 506.2-21.95L506.2-21.95Q504.4-21.95 503.28-21.23 502.15-20.5 501.6-19.3L501.6-19.3Q501.2-18.65 500.45-18.65L500.45-18.65 496.5-18.65Q495.95-18.65 495.68-18.95 495.4-19.25 495.4-19.75L495.4-19.75Q495.45-20.55 496.08-21.7 496.7-22.85 497.98-23.93 499.25-25 501.3-25.75 503.35-26.5 506.25-26.5L506.25-26.5Q509.4-26.5 511.58-25.73 513.75-24.95 515.05-23.65 516.35-22.35 516.95-20.6 517.55-18.85 517.55-16.9L517.55-16.9 517.55-1.2Q517.55-0.7 517.2-0.35 516.85 0 516.35 0L516.35 0 512.3 0Q511.75 0 511.43-0.35 511.1-0.7 511.1-1.2L511.1-1.2 511.1-3.15Q510.45-2.25 509.35-1.4 508.25-0.55 506.68-0.03 505.1 0.5 502.95 0.5ZM504.65-4.25L504.65-4.25Q506.4-4.25 507.83-5 509.25-5.75 510.08-7.33 510.9-8.9 510.9-11.3L510.9-11.3 510.9-12.35 505.9-11.55Q502.95-11.1 501.5-10.1 500.05-9.1 500.05-7.65L500.05-7.65Q500.05-6.55 500.73-5.78 501.4-5 502.45-4.63 503.5-4.25 504.65-4.25ZM539.75 0L535.7 0Q532.7 0 530.65-1.05 528.6-2.1 527.6-4.17 526.6-6.25 526.6-9.35L526.6-9.35 526.6-20.7 522.65-20.7Q522.15-20.7 521.8-21.05 521.45-21.4 521.45-21.95L521.45-21.95 521.45-24.8Q521.45-25.3 521.8-25.65 522.15-26 522.65-26L522.65-26 526.6-26 526.6-34.3Q526.6-34.8 526.92-35.15 527.25-35.5 527.8-35.5L527.8-35.5 531.85-35.5Q532.35-35.5 532.7-35.15 533.05-34.8 533.05-34.3L533.05-34.3 533.05-26 539.3-26Q539.8-26 540.15-25.65 540.5-25.3 540.5-24.8L540.5-24.8 540.5-21.95Q540.5-21.4 540.15-21.05 539.8-20.7 539.3-20.7L539.3-20.7 533.05-20.7 533.05-9.85Q533.05-7.8 533.77-6.65 534.5-5.5 536.3-5.5L536.3-5.5 539.75-5.5Q540.25-5.5 540.6-5.15 540.95-4.8 540.95-4.3L540.95-4.3 540.95-1.2Q540.95-0.7 540.6-0.35 540.25 0 539.75 0L539.75 0ZM550.75 0L546.6 0Q546.1 0 545.75-0.35 545.4-0.7 545.4-1.2L545.4-1.2 545.4-24.8Q545.4-25.3 545.75-25.65 546.1-26 546.6-26L546.6-26 550.75-26Q551.3-26 551.62-25.65 551.95-25.3 551.95-24.8L551.95-24.8 551.95-1.2Q551.95-0.7 551.62-0.35 551.3 0 550.75 0L550.75 0ZM550.95-30.3L546.4-30.3Q545.9-30.3 545.55-30.65 545.2-31 545.2-31.5L545.2-31.5 545.2-35.1Q545.2-35.6 545.55-35.95 545.9-36.3 546.4-36.3L546.4-36.3 550.95-36.3Q551.5-36.3 551.85-35.95 552.2-35.6 552.2-35.1L552.2-35.1 552.2-31.5Q552.2-31 551.85-30.65 551.5-30.3 550.95-30.3L550.95-30.3ZM570.09 0.5L570.09 0.5Q566.09 0.5 563.37-0.9 560.64-2.3 559.22-4.85 557.79-7.4 557.59-10.8L557.59-10.8Q557.54-11.7 557.54-13 557.54-14.3 557.59-15.2L557.59-15.2Q557.79-18.65 559.27-21.18 560.74-23.7 563.47-25.1 566.19-26.5 570.09-26.5L570.09-26.5Q573.99-26.5 576.72-25.1 579.44-23.7 580.92-21.18 582.39-18.65 582.59-15.2L582.59-15.2Q582.64-14.3 582.64-13 582.64-11.7 582.59-10.8L582.59-10.8Q582.39-7.4 580.97-4.85 579.54-2.3 576.82-0.9 574.09 0.5 570.09 0.5ZM570.09-4.45L570.09-4.45Q572.74-4.45 574.19-6.13 575.64-7.8 575.79-11.05L575.79-11.05Q575.84-11.8 575.84-13 575.84-14.2 575.79-14.95L575.79-14.95Q575.64-18.2 574.19-19.88 572.74-21.55 570.09-21.55L570.09-21.55Q567.44-21.55 565.99-19.88 564.54-18.2 564.39-14.95L564.39-14.95Q564.34-14.2 564.34-13 564.34-11.8 564.39-11.05L564.39-11.05Q564.54-7.8 565.99-6.13 567.44-4.45 570.09-4.45ZM593.79 0L589.39 0Q588.89 0 588.54-0.35 588.19-0.7 588.19-1.2L588.19-1.2 588.19-24.8Q588.19-25.3 588.54-25.65 588.89-26 589.39-26L589.39-26 593.49-26Q593.99-26 594.34-25.65 594.69-25.3 594.69-24.8L594.69-24.8 594.69-22.75Q595.99-24.35 598.02-25.43 600.04-26.5 603.04-26.5L603.04-26.5Q606.09-26.5 608.34-25.13 610.59-23.75 611.82-21.25 613.04-18.75 613.04-15.25L613.04-15.25 613.04-1.2Q613.04-0.7 612.69-0.35 612.34 0 611.84 0L611.84 0 607.44 0Q606.94 0 606.59-0.35 606.24-0.7 606.24-1.2L606.24-1.2 606.24-14.95Q606.24-17.85 604.82-19.5 603.39-21.15 600.69-21.15L600.69-21.15Q598.09-21.15 596.54-19.5 594.99-17.85 594.99-14.95L594.99-14.95 594.99-1.2Q594.99-0.7 594.64-0.35 594.29 0 593.79 0L593.79 0Z" opacity="1" transform="matrix(1,0,0,1,0,0)" fill="#000000" class="slogan-text-1" data-fill-palette-color="secondary" id="text-1"></path></svg></g></svg></g></svg></g></svg></g><g><svg viewBox="0 0 190.7828279796593 130.62426611058552" height="130.62426611058552" width="190.7828279796593"><g><svg xmlns="http://www.w3.org/2000/svg" xmlns:xlink="http://www.w3.org/1999/xlink" version="1.1" x="0" y="0" viewBox="15.991999999999997 27 68.01500008003524 46.56818207408713" enable-background="new 0 0 100 100" xml:space="preserve" height="130.62426611058552" width="190.7828279796593" class="icon-icon-0" data-fill-palette-color="accent" id="icon-0"><path d="M63.08 33.979c-1.294 0-2.562 0.089-3.791 0.258-0.1 0.014-0.186 0.076-0.229 0.166-0.044 0.09-0.039 0.196 0.012 0.283 1.439 2.441 2.265 5.152 2.265 8.012 0 7.441-5.48 13.959-13.497 17.124-0.1 0.039-0.171 0.128-0.187 0.233-0.017 0.105 0.024 0.212 0.107 0.278 3.334 2.688 7.905 4.497 13.04 4.914 0.095 0.008 0.181 0.053 0.241 0.125 0.06 0.072 0.088 0.166 0.078 0.26-0.331 3.059-0.961 6.038-1.298 7.51-0.033 0.144 0.027 0.293 0.152 0.372 0.124 0.079 0.285 0.071 0.401-0.02 4.522-3.521 7.453-6.944 8.806-8.684 0.073-0.094 0.175-0.159 0.291-0.187 8.432-2.025 14.536-7.952 14.536-14.95C84.008 41.006 74.638 33.979 63.08 33.979z" fill="#4db6ea" data-fill-palette-color="accent"></path><path d="M57.85 42.697C57.85 34.028 48.479 27 36.922 27c-11.559 0-20.93 7.028-20.93 15.697 0 6.997 6.106 12.927 14.538 14.952 0.114 0.027 0.217 0.094 0.29 0.187 1.354 1.735 4.284 5.159 8.807 8.68 0.116 0.091 0.277 0.099 0.402 0.019 0.124-0.079 0.186-0.228 0.152-0.372-0.339-1.471-0.97-4.447-1.301-7.507-0.01-0.094 0.019-0.188 0.078-0.26 0.061-0.072 0.146-0.118 0.24-0.125C49.682 57.415 57.85 50.785 57.85 42.697z" fill="#4db6ea" data-fill-palette-color="accent"></path></svg></g></svg></g></svg></g><defs></defs></svg><rect width="395.52" height="85.96131018109358" fill="none" stroke="none" visibility="hidden"></rect></g></svg></g></svg>