<svg xmlns="http://www.w3.org/2000/svg" version="1.1" xmlns:xlink="http://www.w3.org/1999/xlink" xmlns:svgjs="http://svgjs.dev/svgjs" width="1500" height="363" viewBox="0 0 1500 363"><g transform="matrix(1,0,0,1,-0.9090909090909918,0.2186219779184455)"><svg viewBox="0 0 396 96" data-background-color="#ffffff" preserveAspectRatio="xMidYMid meet" height="363" width="1500" xmlns="http://www.w3.org/2000/svg" xmlns:xlink="http://www.w3.org/1999/xlink"><g id="tight-bounds" transform="matrix(1,0,0,1,0.2400000000000091,-0.05781738259000235)"><svg viewBox="0 0 395.52 96.11563476518" height="96.11563476518" width="395.52"><g><svg viewBox="0 0 578.8541200116088 140.6678073962264" height="96.11563476518" width="395.52"><g><rect width="6.406852545539864" height="71.39956890566036" x="160.15540216360858" y="34.634119245283024" fill="#111111" opacity="1" stroke-width="0" stroke="transparent" fill-opacity="1" class="rect-qz-0" data-fill-palette-color="primary" rx="1%" id="qz-0" data-palette-color="#111111"></rect></g><g transform="matrix(1,0,0,1,183.33412001160883,34.811730113207545)"><svg viewBox="0 0 395.52 71.04434716981132" height="71.04434716981132" width="395.52"><g id="textblocktransform"><svg viewBox="0 0 395.52 71.04434716981132" height="71.04434716981132" width="395.52" id="textblock"><g><svg viewBox="0 0 395.52 71.04434716981132" height="71.04434716981132" width="395.52"><g transform="matrix(1,0,0,1,0,0)"><svg width="395.52" viewBox="0.5 -35.1 198.73 35.7" height="71.04434716981132" data-palette-color="#111111"><path d="M29.3-32.2L18.45 0 10.35 0 0.5-32.2 7.4-32.2 8.2-27.95 14.3-6.3 14.75-6.3 21.75-27.6 22.6-32.2 29.3-32.2ZM32.5 0L32.85-9.6 32.6-22.8 39.15-23.35 38.85-10.25 39.15 0 32.5 0ZM36-34.65Q37.55-34.65 38.42-33.75 39.3-32.85 39.3-31.25L39.3-31.25Q39.3-29.55 38.35-28.55 37.4-27.55 35.75-27.55L35.75-27.55Q34.1-27.55 33.22-28.45 32.35-29.35 32.35-31L32.35-31Q32.35-32.65 33.32-33.65 34.3-34.65 36-34.65L36-34.65ZM58-23.55Q62.4-23.55 64.72-20.58 67.05-17.6 67.05-12.3L67.05-12.3Q67.05-6.15 64-2.83 60.95 0.5 55.55 0.5L55.55 0.5Q53 0.5 49.95-0.65L49.95-0.65 46.45 0.6 45.65-0.05 46-9.55 45.7-34.6 52.3-35.1 52.1-19.95 52.4-19.95Q53.8-21.3 55.1-22.13 56.4-22.95 58-23.55L58-23.55ZM55.55-3.85Q58.05-3.85 59.45-5.65 60.84-7.45 60.84-11.15L60.84-11.15Q60.84-14.6 59.72-16.4 58.59-18.2 56.35-18.2L56.35-18.2Q54.3-18.2 52.05-16.1L52.05-16.1 51.95-10.4 52.05-4.75Q53.9-3.85 55.55-3.85L55.55-3.85ZM90.34-11.6L89.59-10.8 76.09-10.7Q76.54-4.45 82.44-4.45L82.44-4.45Q85.54-4.45 89.34-6.2L89.34-6.2 89.89-5.85 88.89-0.9Q85.09 0.5 81.74 0.5L81.74 0.5Q76.24 0.5 73.12-2.7 69.99-5.9 69.99-11.55L69.99-11.55Q69.99-17.15 73.04-20.43 76.09-23.7 81.29-23.7L81.29-23.7Q85.74-23.7 88.17-21.28 90.59-18.85 90.59-14.5L90.59-14.5Q90.59-13.35 90.34-11.6L90.34-11.6ZM84.69-14.55L84.79-15.25Q84.79-17.25 83.89-18.28 82.99-19.3 81.24-19.3L81.24-19.3Q79.29-19.3 77.99-18.03 76.69-16.75 76.24-14.35L76.24-14.35 84.69-14.55ZM119.29-32.2L108.44 0 100.34 0 90.49-32.2 97.39-32.2 98.19-27.95 104.29-6.3 104.74-6.3 111.74-27.6 112.59-32.2 119.29-32.2ZM138.79-11.6L138.04-10.8 124.54-10.7Q124.99-4.45 130.89-4.45L130.89-4.45Q133.99-4.45 137.79-6.2L137.79-6.2 138.34-5.85 137.34-0.9Q133.54 0.5 130.19 0.5L130.19 0.5Q124.69 0.5 121.56-2.7 118.44-5.9 118.44-11.55L118.44-11.55Q118.44-17.15 121.49-20.43 124.54-23.7 129.74-23.7L129.74-23.7Q134.19-23.7 136.61-21.28 139.04-18.85 139.04-14.5L139.04-14.5Q139.04-13.35 138.79-11.6L138.79-11.6ZM133.14-14.55L133.24-15.25Q133.24-17.25 132.34-18.28 131.44-19.3 129.69-19.3L129.69-19.3Q127.74-19.3 126.44-18.03 125.14-16.75 124.69-14.35L124.69-14.35 133.14-14.55ZM156.49-23.3Q156.94-23.3 157.74-23.2L157.74-23.2 157.74-17.05 157.03-16.8Q156.19-17.15 155.19-17.15L155.19-17.15Q152.28-17.15 149.94-13.4L149.94-13.4 149.94-10.25 150.28 0 143.64 0 144.03-9.6 143.74-22.8 150.03-23.35 149.99-18.8 150.39-18.8Q152.84-23.3 156.49-23.3L156.49-23.3ZM168.83-23.65Q172.23-23.65 175.23-22.5L175.23-22.5 174.33-17.6 173.53-17.35Q172.08-18.3 170.63-18.8 169.18-19.3 168.08-19.3L168.08-19.3Q166.88-19.3 166.18-18.68 165.48-18.05 165.48-17.15L165.48-17.15Q165.48-16.1 166.41-15.45 167.33-14.8 169.33-14L169.33-14Q171.33-13.2 172.63-12.45 173.93-11.7 174.86-10.38 175.78-9.05 175.78-7.1L175.78-7.1Q175.78-5.1 174.76-3.38 173.73-1.65 171.63-0.58 169.53 0.5 166.48 0.5L166.48 0.5Q162.88 0.5 159.03-1L159.03-1 159.78-6.2 160.43-6.6Q161.98-5.3 163.88-4.53 165.78-3.75 167.23-3.75L167.23-3.75Q168.58-3.75 169.33-4.42 170.08-5.1 170.08-6.05L170.08-6.05Q170.08-7.1 169.16-7.75 168.23-8.4 166.23-9.2L166.23-9.2Q164.18-10.1 162.88-10.83 161.58-11.55 160.66-12.9 159.73-14.25 159.73-16.25L159.73-16.25Q159.73-19.5 162.18-21.58 164.63-23.65 168.83-23.65L168.83-23.65ZM198.98-11.6L198.23-10.8 184.73-10.7Q185.18-4.45 191.08-4.45L191.08-4.45Q194.18-4.45 197.98-6.2L197.98-6.2 198.53-5.85 197.53-0.9Q193.73 0.5 190.38 0.5L190.38 0.5Q184.88 0.5 181.75-2.7 178.63-5.9 178.63-11.55L178.63-11.55Q178.63-17.15 181.68-20.43 184.73-23.7 189.93-23.7L189.93-23.7Q194.38-23.7 196.81-21.28 199.23-18.85 199.23-14.5L199.23-14.5Q199.23-13.35 198.98-11.6L198.98-11.6ZM193.33-14.55L193.43-15.25Q193.43-17.25 192.53-18.28 191.63-19.3 189.88-19.3L189.88-19.3Q187.93-19.3 186.63-18.03 185.33-16.75 184.88-14.35L184.88-14.35 193.33-14.55Z" opacity="1" transform="matrix(1,0,0,1,0,0)" fill="#111111" class="wordmark-text-0" data-fill-palette-color="primary" id="text-0"></path></svg></g></svg></g></svg></g></svg></g><g><svg viewBox="0 0 143.3835368611482 140.6678073962264" height="140.6678073962264" width="143.3835368611482"><g><svg xmlns="http://www.w3.org/2000/svg" xmlns:xlink="http://www.w3.org/1999/xlink" version="1.1" x="0" y="0" viewBox="7.637000000000002 8.599 85.285 83.66967516922709" enable-background="new 0 0 100 100" xml:space="preserve" height="140.6678073962264" width="143.3835368611482" class="icon-icon-0" data-fill-palette-color="accent" id="icon-0"></svg></g></svg></g></svg></g><defs></defs><mask id="1b4a22a2-8168-4810-a49a-60f4000e47a6"><g id="SvgjsG1813"><svg viewBox="0 0 395.52 96.11563476518" height="96.11563476518" width="395.52"><g><svg viewBox="0 0 578.8541200116088 140.6678073962264" height="96.11563476518" width="395.52"><g><rect width="6.406852545539864" height="71.39956890566036" x="160.15540216360858" y="34.634119245283024" fill="black" opacity="1" stroke-width="0" stroke="transparent" fill-opacity="1" class="rect-qz-0" rx="1%" id="SvgjsRect1812" data-palette-color="#111111"></rect></g><g transform="matrix(1,0,0,1,183.33412001160883,34.811730113207545)"><svg viewBox="0 0 395.52 71.04434716981132" height="71.04434716981132" width="395.52"><g id="SvgjsG1811"><svg viewBox="0 0 395.52 71.04434716981132" height="71.04434716981132" width="395.52" id="SvgjsSvg1810"><g><svg viewBox="0 0 395.52 71.04434716981132" height="71.04434716981132" width="395.52"><g transform="matrix(1,0,0,1,0,0)"><svg width="395.52" viewBox="0.5 -35.1 198.73 35.7" height="71.04434716981132" data-palette-color="#111111"><path d="M29.3-32.2L18.45 0 10.35 0 0.5-32.2 7.4-32.2 8.2-27.95 14.3-6.3 14.75-6.3 21.75-27.6 22.6-32.2 29.3-32.2ZM32.5 0L32.85-9.6 32.6-22.8 39.15-23.35 38.85-10.25 39.15 0 32.5 0ZM36-34.65Q37.55-34.65 38.42-33.75 39.3-32.85 39.3-31.25L39.3-31.25Q39.3-29.55 38.35-28.55 37.4-27.55 35.75-27.55L35.75-27.55Q34.1-27.55 33.22-28.45 32.35-29.35 32.35-31L32.35-31Q32.35-32.65 33.32-33.65 34.3-34.65 36-34.65L36-34.65ZM58-23.55Q62.4-23.55 64.72-20.58 67.05-17.6 67.05-12.3L67.05-12.3Q67.05-6.15 64-2.83 60.95 0.5 55.55 0.5L55.55 0.5Q53 0.5 49.95-0.65L49.95-0.65 46.45 0.6 45.65-0.05 46-9.55 45.7-34.6 52.3-35.1 52.1-19.95 52.4-19.95Q53.8-21.3 55.1-22.13 56.4-22.95 58-23.55L58-23.55ZM55.55-3.85Q58.05-3.85 59.45-5.65 60.84-7.45 60.84-11.15L60.84-11.15Q60.84-14.6 59.72-16.4 58.59-18.2 56.35-18.2L56.35-18.2Q54.3-18.2 52.05-16.1L52.05-16.1 51.95-10.4 52.05-4.75Q53.9-3.85 55.55-3.85L55.55-3.85ZM90.34-11.6L89.59-10.8 76.09-10.7Q76.54-4.45 82.44-4.45L82.44-4.45Q85.54-4.45 89.34-6.2L89.34-6.2 89.89-5.85 88.89-0.9Q85.09 0.5 81.74 0.5L81.74 0.5Q76.24 0.5 73.12-2.7 69.99-5.9 69.99-11.55L69.99-11.55Q69.99-17.15 73.04-20.43 76.09-23.7 81.29-23.7L81.29-23.7Q85.74-23.7 88.17-21.28 90.59-18.85 90.59-14.5L90.59-14.5Q90.59-13.35 90.34-11.6L90.34-11.6ZM84.69-14.55L84.79-15.25Q84.79-17.25 83.89-18.28 82.99-19.3 81.24-19.3L81.24-19.3Q79.29-19.3 77.99-18.03 76.69-16.75 76.24-14.35L76.24-14.35 84.69-14.55ZM119.29-32.2L108.44 0 100.34 0 90.49-32.2 97.39-32.2 98.19-27.95 104.29-6.3 104.74-6.3 111.74-27.6 112.59-32.2 119.29-32.2ZM138.79-11.6L138.04-10.8 124.54-10.7Q124.99-4.45 130.89-4.45L130.89-4.45Q133.99-4.45 137.79-6.2L137.79-6.2 138.34-5.85 137.34-0.9Q133.54 0.5 130.19 0.5L130.19 0.5Q124.69 0.5 121.56-2.7 118.44-5.9 118.44-11.55L118.44-11.55Q118.44-17.15 121.49-20.43 124.54-23.7 129.74-23.7L129.74-23.7Q134.19-23.7 136.61-21.28 139.04-18.85 139.04-14.5L139.04-14.5Q139.04-13.35 138.79-11.6L138.79-11.6ZM133.14-14.55L133.24-15.25Q133.24-17.25 132.34-18.28 131.44-19.3 129.69-19.3L129.69-19.3Q127.74-19.3 126.44-18.03 125.14-16.75 124.69-14.35L124.69-14.35 133.14-14.55ZM156.49-23.3Q156.94-23.3 157.74-23.2L157.74-23.2 157.74-17.05 157.03-16.8Q156.19-17.15 155.19-17.15L155.19-17.15Q152.28-17.15 149.94-13.4L149.94-13.4 149.94-10.25 150.28 0 143.64 0 144.03-9.6 143.74-22.8 150.03-23.35 149.99-18.8 150.39-18.8Q152.84-23.3 156.49-23.3L156.49-23.3ZM168.83-23.65Q172.23-23.65 175.23-22.5L175.23-22.5 174.33-17.6 173.53-17.35Q172.08-18.3 170.63-18.8 169.18-19.3 168.08-19.3L168.08-19.3Q166.88-19.3 166.18-18.68 165.48-18.05 165.48-17.15L165.48-17.15Q165.48-16.1 166.41-15.45 167.33-14.8 169.33-14L169.33-14Q171.33-13.2 172.63-12.45 173.93-11.7 174.86-10.38 175.78-9.05 175.78-7.1L175.78-7.1Q175.78-5.1 174.76-3.38 173.73-1.65 171.63-0.58 169.53 0.5 166.48 0.5L166.48 0.5Q162.88 0.5 159.03-1L159.03-1 159.78-6.2 160.43-6.6Q161.98-5.3 163.88-4.53 165.78-3.75 167.23-3.75L167.23-3.75Q168.58-3.75 169.33-4.42 170.08-5.1 170.08-6.05L170.08-6.05Q170.08-7.1 169.16-7.75 168.23-8.4 166.23-9.2L166.23-9.2Q164.18-10.1 162.88-10.83 161.58-11.55 160.66-12.9 159.73-14.25 159.73-16.25L159.73-16.25Q159.73-19.5 162.18-21.58 164.63-23.65 168.83-23.65L168.83-23.65ZM198.98-11.6L198.23-10.8 184.73-10.7Q185.18-4.45 191.08-4.45L191.08-4.45Q194.18-4.45 197.98-6.2L197.98-6.2 198.53-5.85 197.53-0.9Q193.73 0.5 190.38 0.5L190.38 0.5Q184.88 0.5 181.75-2.7 178.63-5.9 178.63-11.55L178.63-11.55Q178.63-17.15 181.68-20.43 184.73-23.7 189.93-23.7L189.93-23.7Q194.38-23.7 196.81-21.28 199.23-18.85 199.23-14.5L199.23-14.5Q199.23-13.35 198.98-11.6L198.98-11.6ZM193.33-14.55L193.43-15.25Q193.43-17.25 192.53-18.28 191.63-19.3 189.88-19.3L189.88-19.3Q187.93-19.3 186.63-18.03 185.33-16.75 184.88-14.35L184.88-14.35 193.33-14.55Z" opacity="1" transform="matrix(1,0,0,1,0,0)" fill="black" class="wordmark-text-0" id="SvgjsPath1809"></path></svg></g></svg></g></svg></g></svg></g><g><svg viewBox="0 0 143.3835368611482 140.6678073962264" height="140.6678073962264" width="143.3835368611482"><g><svg xmlns="http://www.w3.org/2000/svg" xmlns:xlink="http://www.w3.org/1999/xlink" version="1.1" x="0" y="0" viewBox="7.637000000000002 8.599 85.285 83.66967516922709" enable-background="new 0 0 100 100" xml:space="preserve" height="140.6678073962264" width="143.3835368611482" class="icon-icon-0" data-fill-palette-color="accent" id="SvgjsSvg1808"><g fill="white"><path d="M92.922 19.558c0-6.04-4.919-10.959-10.962-10.959H18.6c-6.045 0-10.963 4.919-10.963 10.959v41.267c0 6.042 4.918 10.952 10.963 10.952h10.504v16.196c0 1.74 1.038 3.297 2.641 3.966 1.612 0.669 3.45 0.301 4.684-0.933l19.231-19.229H81.96c6.043 0 10.962-4.91 10.962-10.952V19.558zM87.011 60.824c0 2.777-2.265 5.041-5.051 5.041H54.437h-1.222l-0.869 0.87-17.33 17.328V68.819v-2.954h-2.957H18.6c-2.782 0-5.05-2.264-5.05-5.041V19.558c0-2.776 2.268-5.047 5.05-5.047h63.36c2.786 0 5.051 2.271 5.051 5.047V60.824z" fill="white"></path></g></svg></g></svg></g></svg></g><defs><mask></mask></defs></svg><rect width="395.52" height="96.11563476518" fill="black" stroke="none" visibility="hidden"></rect></g></mask><linearGradient x1="0.054" x2="0.941" y1="0.5" y2="0.5" id="9805f4e7-ab6c-406b-8fda-526911aa80b1"><stop stop-color="#0f3054" offset="0"></stop><stop stop-color="#3b8dcb" offset="0.498"></stop><stop stop-color="#0f3054" offset="1"></stop></linearGradient><rect width="395.52" height="96.11563476518" fill="url(#9805f4e7-ab6c-406b-8fda-526911aa80b1)" mask="url(#1b4a22a2-8168-4810-a49a-60f4000e47a6)" data-fill-palette-color="accent"></rect></svg><rect width="395.52" height="96.11563476518" fill="none" stroke="none" visibility="hidden"></rect></g></svg></g></svg>